<svg width="1363" height="163" viewBox="0 0 1363 163" fill="none" xmlns="http://www.w3.org/2000/svg">
<path d="M0 15C0 6.71573 6.71573 0 15 0H37V163H15C6.71573 163 0 156.284 0 148V15Z" fill="#424242"/>
<rect width="1097" height="163" transform="translate(37)" fill="#F0F0F0"/>
<path d="M101.906 53.9219L94.3945 51.2383V48.0859L104.602 52.375V54.6367L101.906 53.9219ZM94.3945 56.1719L101.918 53.4297L104.602 52.7852V55.0352L94.3945 59.3242V56.1719ZM122.32 43.9375H125.824V55.2109C125.824 56.5234 125.543 57.6289 124.98 58.5273C124.426 59.4258 123.656 60.1016 122.672 60.5547C121.695 61.0078 120.57 61.2344 119.297 61.2344C118.023 61.2344 116.891 61.0078 115.898 60.5547C114.914 60.1016 114.141 59.4258 113.578 58.5273C113.023 57.6289 112.746 56.5234 112.746 55.2109V43.9375H116.262V55.2109C116.262 55.9766 116.383 56.6016 116.625 57.0859C116.867 57.5703 117.215 57.9258 117.668 58.1523C118.129 58.3789 118.672 58.4922 119.297 58.4922C119.938 58.4922 120.48 58.3789 120.926 58.1523C121.379 57.9258 121.723 57.5703 121.957 57.0859C122.199 56.6016 122.32 55.9766 122.32 55.2109V43.9375ZM128.672 59.3711C128.672 58.8711 128.844 58.4531 129.188 58.1172C129.539 57.7812 130.004 57.6133 130.582 57.6133C131.16 57.6133 131.621 57.7812 131.965 58.1172C132.316 58.4531 132.492 58.8711 132.492 59.3711C132.492 59.8711 132.316 60.2891 131.965 60.625C131.621 60.9609 131.16 61.1289 130.582 61.1289C130.004 61.1289 129.539 60.9609 129.188 60.625C128.844 60.2891 128.672 59.8711 128.672 59.3711ZM144.562 56.5352C144.562 56.2305 144.516 55.957 144.422 55.7148C144.336 55.4648 144.172 55.2383 143.93 55.0352C143.688 54.8242 143.348 54.6172 142.91 54.4141C142.473 54.2109 141.906 54 141.211 53.7812C140.438 53.5312 139.703 53.25 139.008 52.9375C138.32 52.625 137.711 52.2617 137.18 51.8477C136.656 51.4258 136.242 50.9375 135.938 50.3828C135.641 49.8281 135.492 49.1836 135.492 48.4492C135.492 47.7383 135.648 47.0938 135.961 46.5156C136.273 45.9297 136.711 45.4297 137.273 45.0156C137.836 44.5938 138.5 44.2695 139.266 44.043C140.039 43.8164 140.887 43.7031 141.809 43.7031C143.066 43.7031 144.164 43.9297 145.102 44.3828C146.039 44.8359 146.766 45.457 147.281 46.2461C147.805 47.0352 148.066 47.9375 148.066 48.9531H144.574C144.574 48.4531 144.469 48.0156 144.258 47.6406C144.055 47.2578 143.742 46.957 143.32 46.7383C142.906 46.5195 142.383 46.4102 141.75 46.4102C141.141 46.4102 140.633 46.5039 140.227 46.6914C139.82 46.8711 139.516 47.1172 139.312 47.4297C139.109 47.7344 139.008 48.0781 139.008 48.4609C139.008 48.75 139.078 49.0117 139.219 49.2461C139.367 49.4805 139.586 49.6992 139.875 49.9023C140.164 50.1055 140.52 50.2969 140.941 50.4766C141.363 50.6562 141.852 50.832 142.406 51.0039C143.336 51.2852 144.152 51.6016 144.855 51.9531C145.566 52.3047 146.16 52.6992 146.637 53.1367C147.113 53.5742 147.473 54.0703 147.715 54.625C147.957 55.1797 148.078 55.8086 148.078 56.5117C148.078 57.2539 147.934 57.918 147.645 58.5039C147.355 59.0898 146.938 59.5859 146.391 59.9922C145.844 60.3984 145.191 60.707 144.434 60.918C143.676 61.1289 142.828 61.2344 141.891 61.2344C141.047 61.2344 140.215 61.125 139.395 60.9062C138.574 60.6797 137.828 60.3398 137.156 59.8867C136.492 59.4336 135.961 58.8555 135.562 58.1523C135.164 57.4492 134.965 56.6172 134.965 55.6562H138.492C138.492 56.1875 138.574 56.6367 138.738 57.0039C138.902 57.3711 139.133 57.668 139.43 57.8945C139.734 58.1211 140.094 58.2852 140.508 58.3867C140.93 58.4883 141.391 58.5391 141.891 58.5391C142.5 58.5391 143 58.4531 143.391 58.2812C143.789 58.1094 144.082 57.8711 144.27 57.5664C144.465 57.2617 144.562 56.918 144.562 56.5352ZM150.422 59.3711C150.422 58.8711 150.594 58.4531 150.938 58.1172C151.289 57.7812 151.754 57.6133 152.332 57.6133C152.91 57.6133 153.371 57.7812 153.715 58.1172C154.066 58.4531 154.242 58.8711 154.242 59.3711C154.242 59.8711 154.066 60.2891 153.715 60.625C153.371 60.9609 152.91 61.1289 152.332 61.1289C151.754 61.1289 151.289 60.9609 150.938 60.625C150.594 60.2891 150.422 59.8711 150.422 59.3711ZM164.367 46.8555L159.727 61H155.988L162.328 43.9375H164.707L164.367 46.8555ZM168.223 61L163.57 46.8555L163.195 43.9375H165.598L171.973 61H168.223ZM168.012 54.6484V57.4023H159V54.6484H168.012ZM179.531 43.9375H185.895C187.199 43.9375 188.32 44.1328 189.258 44.5234C190.203 44.9141 190.93 45.4922 191.438 46.2578C191.945 47.0234 192.199 47.9648 192.199 49.082C192.199 49.9961 192.043 50.7812 191.73 51.4375C191.426 52.0859 190.992 52.6289 190.43 53.0664C189.875 53.4961 189.223 53.8398 188.473 54.0977L187.359 54.6836H181.828L181.805 51.9414H185.918C186.535 51.9414 187.047 51.832 187.453 51.6133C187.859 51.3945 188.164 51.0898 188.367 50.6992C188.578 50.3086 188.684 49.8555 188.684 49.3398C188.684 48.793 188.582 48.3203 188.379 47.9219C188.176 47.5234 187.867 47.2188 187.453 47.0078C187.039 46.7969 186.52 46.6914 185.895 46.6914H183.047V61H179.531V43.9375ZM189.07 61L185.18 53.3945L188.895 53.3711L192.832 60.8359V61H189.07ZM200.531 61.2344C199.547 61.2344 198.664 61.0781 197.883 60.7656C197.102 60.4453 196.438 60.0039 195.891 59.4414C195.352 58.8789 194.938 58.2266 194.648 57.4844C194.359 56.7344 194.215 55.9375 194.215 55.0938V54.625C194.215 53.6641 194.352 52.7852 194.625 51.9883C194.898 51.1914 195.289 50.5 195.797 49.9141C196.312 49.3281 196.938 48.8789 197.672 48.5664C198.406 48.2461 199.234 48.0859 200.156 48.0859C201.055 48.0859 201.852 48.2344 202.547 48.5312C203.242 48.8281 203.824 49.25 204.293 49.7969C204.77 50.3438 205.129 51 205.371 51.7656C205.613 52.5234 205.734 53.3672 205.734 54.2969V55.7031H195.656V53.4531H202.418V53.1953C202.418 52.7266 202.332 52.3086 202.16 51.9414C201.996 51.5664 201.746 51.2695 201.41 51.0508C201.074 50.832 200.645 50.7227 200.121 50.7227C199.676 50.7227 199.293 50.8203 198.973 51.0156C198.652 51.2109 198.391 51.4844 198.188 51.8359C197.992 52.1875 197.844 52.6016 197.742 53.0781C197.648 53.5469 197.602 54.0625 197.602 54.625V55.0938C197.602 55.6016 197.672 56.0703 197.812 56.5C197.961 56.9297 198.168 57.3008 198.434 57.6133C198.707 57.9258 199.035 58.168 199.418 58.3398C199.809 58.5117 200.25 58.5977 200.742 58.5977C201.352 58.5977 201.918 58.4805 202.441 58.2461C202.973 58.0039 203.43 57.6406 203.812 57.1562L205.453 58.9375C205.188 59.3203 204.824 59.6875 204.363 60.0391C203.91 60.3906 203.363 60.6797 202.723 60.9062C202.082 61.125 201.352 61.2344 200.531 61.2344ZM212.895 58.5977C213.309 58.5977 213.676 58.5195 213.996 58.3633C214.316 58.1992 214.566 57.9727 214.746 57.6836C214.934 57.3867 215.031 57.0391 215.039 56.6406H218.215C218.207 57.5312 217.969 58.3242 217.5 59.0195C217.031 59.707 216.402 60.25 215.613 60.6484C214.824 61.0391 213.941 61.2344 212.965 61.2344C211.98 61.2344 211.121 61.0703 210.387 60.7422C209.66 60.4141 209.055 59.9609 208.57 59.3828C208.086 58.7969 207.723 58.1172 207.48 57.3438C207.238 56.5625 207.117 55.7266 207.117 54.8359V54.4961C207.117 53.5977 207.238 52.7617 207.48 51.9883C207.723 51.207 208.086 50.5273 208.57 49.9492C209.055 49.3633 209.66 48.9062 210.387 48.5781C211.113 48.25 211.965 48.0859 212.941 48.0859C213.98 48.0859 214.891 48.2852 215.672 48.6836C216.461 49.082 217.078 49.6523 217.523 50.3945C217.977 51.1289 218.207 52 218.215 53.0078H215.039C215.031 52.5859 214.941 52.2031 214.77 51.8594C214.605 51.5156 214.363 51.2422 214.043 51.0391C213.73 50.8281 213.344 50.7227 212.883 50.7227C212.391 50.7227 211.988 50.8281 211.676 51.0391C211.363 51.2422 211.121 51.5234 210.949 51.8828C210.777 52.2344 210.656 52.6367 210.586 53.0898C210.523 53.5352 210.492 54.0039 210.492 54.4961V54.8359C210.492 55.3281 210.523 55.8008 210.586 56.2539C210.648 56.707 210.766 57.1094 210.938 57.4609C211.117 57.8125 211.363 58.0898 211.676 58.293C211.988 58.4961 212.395 58.5977 212.895 58.5977ZM226.008 61.2344C225.023 61.2344 224.141 61.0781 223.359 60.7656C222.578 60.4453 221.914 60.0039 221.367 59.4414C220.828 58.8789 220.414 58.2266 220.125 57.4844C219.836 56.7344 219.691 55.9375 219.691 55.0938V54.625C219.691 53.6641 219.828 52.7852 220.102 51.9883C220.375 51.1914 220.766 50.5 221.273 49.9141C221.789 49.3281 222.414 48.8789 223.148 48.5664C223.883 48.2461 224.711 48.0859 225.633 48.0859C226.531 48.0859 227.328 48.2344 228.023 48.5312C228.719 48.8281 229.301 49.25 229.77 49.7969C230.246 50.3438 230.605 51 230.848 51.7656C231.09 52.5234 231.211 53.3672 231.211 54.2969V55.7031H221.133V53.4531H227.895V53.1953C227.895 52.7266 227.809 52.3086 227.637 51.9414C227.473 51.5664 227.223 51.2695 226.887 51.0508C226.551 50.832 226.121 50.7227 225.598 50.7227C225.152 50.7227 224.77 50.8203 224.449 51.0156C224.129 51.2109 223.867 51.4844 223.664 51.8359C223.469 52.1875 223.32 52.6016 223.219 53.0781C223.125 53.5469 223.078 54.0625 223.078 54.625V55.0938C223.078 55.6016 223.148 56.0703 223.289 56.5C223.438 56.9297 223.645 57.3008 223.91 57.6133C224.184 57.9258 224.512 58.168 224.895 58.3398C225.285 58.5117 225.727 58.5977 226.219 58.5977C226.828 58.5977 227.395 58.4805 227.918 58.2461C228.449 58.0039 228.906 57.6406 229.289 57.1562L230.93 58.9375C230.664 59.3203 230.301 59.6875 229.84 60.0391C229.387 60.3906 228.84 60.6797 228.199 60.9062C227.559 61.125 226.828 61.2344 226.008 61.2344ZM239.988 57.4961C239.988 57.2539 239.918 57.0352 239.777 56.8398C239.637 56.6445 239.375 56.4648 238.992 56.3008C238.617 56.1289 238.074 55.9727 237.363 55.832C236.723 55.6914 236.125 55.5156 235.57 55.3047C235.023 55.0859 234.547 54.8242 234.141 54.5195C233.742 54.2148 233.43 53.8555 233.203 53.4414C232.977 53.0195 232.863 52.5391 232.863 52C232.863 51.4688 232.977 50.9688 233.203 50.5C233.438 50.0312 233.77 49.6172 234.199 49.2578C234.637 48.8906 235.168 48.6055 235.793 48.4023C236.426 48.1914 237.137 48.0859 237.926 48.0859C239.027 48.0859 239.973 48.2617 240.762 48.6133C241.559 48.9648 242.168 49.4492 242.59 50.0664C243.02 50.6758 243.234 51.3711 243.234 52.1523H239.859C239.859 51.8242 239.789 51.5312 239.648 51.2734C239.516 51.0078 239.305 50.8008 239.016 50.6523C238.734 50.4961 238.367 50.418 237.914 50.418C237.539 50.418 237.215 50.4844 236.941 50.6172C236.668 50.7422 236.457 50.9141 236.309 51.1328C236.168 51.3438 236.098 51.5781 236.098 51.8359C236.098 52.0312 236.137 52.207 236.215 52.3633C236.301 52.5117 236.438 52.6484 236.625 52.7734C236.812 52.8984 237.055 53.0156 237.352 53.125C237.656 53.2266 238.031 53.3203 238.477 53.4062C239.391 53.5938 240.207 53.8398 240.926 54.1445C241.645 54.4414 242.215 54.8477 242.637 55.3633C243.059 55.8711 243.27 56.5391 243.27 57.3672C243.27 57.9297 243.145 58.4453 242.895 58.9141C242.645 59.3828 242.285 59.793 241.816 60.1445C241.348 60.4883 240.785 60.7578 240.129 60.9531C239.48 61.1406 238.75 61.2344 237.938 61.2344C236.758 61.2344 235.758 61.0234 234.938 60.6016C234.125 60.1797 233.508 59.6445 233.086 58.9961C232.672 58.3398 232.465 57.668 232.465 56.9805H235.664C235.68 57.4414 235.797 57.8125 236.016 58.0938C236.242 58.375 236.527 58.5781 236.871 58.7031C237.223 58.8281 237.602 58.8906 238.008 58.8906C238.445 58.8906 238.809 58.832 239.098 58.7148C239.387 58.5898 239.605 58.4258 239.754 58.2227C239.91 58.0117 239.988 57.7695 239.988 57.4961ZM252.316 57.4961C252.316 57.2539 252.246 57.0352 252.105 56.8398C251.965 56.6445 251.703 56.4648 251.32 56.3008C250.945 56.1289 250.402 55.9727 249.691 55.832C249.051 55.6914 248.453 55.5156 247.898 55.3047C247.352 55.0859 246.875 54.8242 246.469 54.5195C246.07 54.2148 245.758 53.8555 245.531 53.4414C245.305 53.0195 245.191 52.5391 245.191 52C245.191 51.4688 245.305 50.9688 245.531 50.5C245.766 50.0312 246.098 49.6172 246.527 49.2578C246.965 48.8906 247.496 48.6055 248.121 48.4023C248.754 48.1914 249.465 48.0859 250.254 48.0859C251.355 48.0859 252.301 48.2617 253.09 48.6133C253.887 48.9648 254.496 49.4492 254.918 50.0664C255.348 50.6758 255.562 51.3711 255.562 52.1523H252.188C252.188 51.8242 252.117 51.5312 251.977 51.2734C251.844 51.0078 251.633 50.8008 251.344 50.6523C251.062 50.4961 250.695 50.418 250.242 50.418C249.867 50.418 249.543 50.4844 249.27 50.6172C248.996 50.7422 248.785 50.9141 248.637 51.1328C248.496 51.3438 248.426 51.5781 248.426 51.8359C248.426 52.0312 248.465 52.207 248.543 52.3633C248.629 52.5117 248.766 52.6484 248.953 52.7734C249.141 52.8984 249.383 53.0156 249.68 53.125C249.984 53.2266 250.359 53.3203 250.805 53.4062C251.719 53.5938 252.535 53.8398 253.254 54.1445C253.973 54.4414 254.543 54.8477 254.965 55.3633C255.387 55.8711 255.598 56.5391 255.598 57.3672C255.598 57.9297 255.473 58.4453 255.223 58.9141C254.973 59.3828 254.613 59.793 254.145 60.1445C253.676 60.4883 253.113 60.7578 252.457 60.9531C251.809 61.1406 251.078 61.2344 250.266 61.2344C249.086 61.2344 248.086 61.0234 247.266 60.6016C246.453 60.1797 245.836 59.6445 245.414 58.9961C245 58.3398 244.793 57.668 244.793 56.9805H247.992C248.008 57.4414 248.125 57.8125 248.344 58.0938C248.57 58.375 248.855 58.5781 249.199 58.7031C249.551 58.8281 249.93 58.8906 250.336 58.8906C250.773 58.8906 251.137 58.832 251.426 58.7148C251.715 58.5898 251.934 58.4258 252.082 58.2227C252.238 58.0117 252.316 57.7695 252.316 57.4961ZM261.352 48.3203V61H257.965V48.3203H261.352ZM257.754 45.0156C257.754 44.5234 257.926 44.1172 258.27 43.7969C258.613 43.4766 259.074 43.3164 259.652 43.3164C260.223 43.3164 260.68 43.4766 261.023 43.7969C261.375 44.1172 261.551 44.5234 261.551 45.0156C261.551 45.5078 261.375 45.9141 261.023 46.2344C260.68 46.5547 260.223 46.7148 259.652 46.7148C259.074 46.7148 258.613 46.5547 258.27 46.2344C257.926 45.9141 257.754 45.5078 257.754 45.0156ZM263.602 54.7891V54.543C263.602 53.6133 263.734 52.7578 264 51.9766C264.266 51.1875 264.652 50.5039 265.16 49.9258C265.668 49.3477 266.293 48.8984 267.035 48.5781C267.777 48.25 268.629 48.0859 269.59 48.0859C270.551 48.0859 271.406 48.25 272.156 48.5781C272.906 48.8984 273.535 49.3477 274.043 49.9258C274.559 50.5039 274.949 51.1875 275.215 51.9766C275.48 52.7578 275.613 53.6133 275.613 54.543V54.7891C275.613 55.7109 275.48 56.5664 275.215 57.3555C274.949 58.1367 274.559 58.8203 274.043 59.4062C273.535 59.9844 272.91 60.4336 272.168 60.7539C271.426 61.0742 270.574 61.2344 269.613 61.2344C268.652 61.2344 267.797 61.0742 267.047 60.7539C266.305 60.4336 265.676 59.9844 265.16 59.4062C264.652 58.8203 264.266 58.1367 264 57.3555C263.734 56.5664 263.602 55.7109 263.602 54.7891ZM266.977 54.543V54.7891C266.977 55.3203 267.023 55.8164 267.117 56.2773C267.211 56.7383 267.359 57.1445 267.562 57.4961C267.773 57.8398 268.047 58.1094 268.383 58.3047C268.719 58.5 269.129 58.5977 269.613 58.5977C270.082 58.5977 270.484 58.5 270.82 58.3047C271.156 58.1094 271.426 57.8398 271.629 57.4961C271.832 57.1445 271.98 56.7383 272.074 56.2773C272.176 55.8164 272.227 55.3203 272.227 54.7891V54.543C272.227 54.0273 272.176 53.543 272.074 53.0898C271.98 52.6289 271.828 52.2227 271.617 51.8711C271.414 51.5117 271.145 51.2305 270.809 51.0273C270.473 50.8242 270.066 50.7227 269.59 50.7227C269.113 50.7227 268.707 50.8242 268.371 51.0273C268.043 51.2305 267.773 51.5117 267.562 51.8711C267.359 52.2227 267.211 52.6289 267.117 53.0898C267.023 53.543 266.977 54.0273 266.977 54.543ZM280.992 51.0273V61H277.617V48.3203H280.781L280.992 51.0273ZM280.5 54.2148H279.586C279.586 53.2773 279.707 52.4336 279.949 51.6836C280.191 50.9258 280.531 50.2812 280.969 49.75C281.406 49.2109 281.926 48.8008 282.527 48.5195C283.137 48.2305 283.816 48.0859 284.566 48.0859C285.16 48.0859 285.703 48.1719 286.195 48.3438C286.688 48.5156 287.109 48.7891 287.461 49.1641C287.82 49.5391 288.094 50.0352 288.281 50.6523C288.477 51.2695 288.574 52.0234 288.574 52.9141V61H285.176V52.9023C285.176 52.3398 285.098 51.9023 284.941 51.5898C284.785 51.2773 284.555 51.0586 284.25 50.9336C283.953 50.8008 283.586 50.7344 283.148 50.7344C282.695 50.7344 282.301 50.8242 281.965 51.0039C281.637 51.1836 281.363 51.4336 281.145 51.7539C280.934 52.0664 280.773 52.4336 280.664 52.8555C280.555 53.2773 280.5 53.7305 280.5 54.2148ZM304.266 46.8555L299.625 61H295.887L302.227 43.9375H304.605L304.266 46.8555ZM308.121 61L303.469 46.8555L303.094 43.9375H305.496L311.871 61H308.121ZM307.91 54.6484V57.4023H298.898V54.6484H307.91ZM316.172 51.0273V61H312.797V48.3203H315.961L316.172 51.0273ZM315.68 54.2148H314.766C314.766 53.2773 314.887 52.4336 315.129 51.6836C315.371 50.9258 315.711 50.2812 316.148 49.75C316.586 49.2109 317.105 48.8008 317.707 48.5195C318.316 48.2305 318.996 48.0859 319.746 48.0859C320.34 48.0859 320.883 48.1719 321.375 48.3438C321.867 48.5156 322.289 48.7891 322.641 49.1641C323 49.5391 323.273 50.0352 323.461 50.6523C323.656 51.2695 323.754 52.0234 323.754 52.9141V61H320.355V52.9023C320.355 52.3398 320.277 51.9023 320.121 51.5898C319.965 51.2773 319.734 51.0586 319.43 50.9336C319.133 50.8008 318.766 50.7344 318.328 50.7344C317.875 50.7344 317.48 50.8242 317.145 51.0039C316.816 51.1836 316.543 51.4336 316.324 51.7539C316.113 52.0664 315.953 52.4336 315.844 52.8555C315.734 53.2773 315.68 53.7305 315.68 54.2148ZM333.164 58.1406V52.4922C333.164 52.0859 333.098 51.7383 332.965 51.4492C332.832 51.1523 332.625 50.9219 332.344 50.7578C332.07 50.5938 331.715 50.5117 331.277 50.5117C330.902 50.5117 330.578 50.5781 330.305 50.7109C330.031 50.8359 329.82 51.0195 329.672 51.2617C329.523 51.4961 329.449 51.7734 329.449 52.0938H326.074C326.074 51.5547 326.199 51.043 326.449 50.5586C326.699 50.0742 327.062 49.6484 327.539 49.2812C328.016 48.9062 328.582 48.6133 329.238 48.4023C329.902 48.1914 330.645 48.0859 331.465 48.0859C332.449 48.0859 333.324 48.25 334.09 48.5781C334.855 48.9062 335.457 49.3984 335.895 50.0547C336.34 50.7109 336.562 51.5312 336.562 52.5156V57.9414C336.562 58.6367 336.605 59.207 336.691 59.6523C336.777 60.0898 336.902 60.4727 337.066 60.8008V61H333.656C333.492 60.6562 333.367 60.2266 333.281 59.7109C333.203 59.1875 333.164 58.6641 333.164 58.1406ZM333.609 53.2773L333.633 55.1875H331.746C331.301 55.1875 330.914 55.2383 330.586 55.3398C330.258 55.4414 329.988 55.5859 329.777 55.7734C329.566 55.9531 329.41 56.1641 329.309 56.4062C329.215 56.6484 329.168 56.9141 329.168 57.2031C329.168 57.4922 329.234 57.7539 329.367 57.9883C329.5 58.2148 329.691 58.3945 329.941 58.5273C330.191 58.6523 330.484 58.7148 330.82 58.7148C331.328 58.7148 331.77 58.6133 332.145 58.4102C332.52 58.207 332.809 57.957 333.012 57.6602C333.223 57.3633 333.332 57.082 333.34 56.8164L334.23 58.2461C334.105 58.5664 333.934 58.8984 333.715 59.2422C333.504 59.5859 333.234 59.9102 332.906 60.2148C332.578 60.5117 332.184 60.7578 331.723 60.9531C331.262 61.1406 330.715 61.2344 330.082 61.2344C329.277 61.2344 328.547 61.0742 327.891 60.7539C327.242 60.4258 326.727 59.9766 326.344 59.4062C325.969 58.8281 325.781 58.1719 325.781 57.4375C325.781 56.7734 325.906 56.1836 326.156 55.668C326.406 55.1523 326.773 54.7188 327.258 54.3672C327.75 54.0078 328.363 53.7383 329.098 53.5586C329.832 53.3711 330.684 53.2773 331.652 53.2773H333.609ZM342.727 43V61H339.34V43H342.727ZM349.277 59.5703L352.641 48.3203H356.262L351.164 62.9102C351.055 63.2305 350.906 63.5742 350.719 63.9414C350.539 64.3086 350.293 64.6562 349.98 64.9844C349.676 65.3203 349.289 65.5938 348.82 65.8047C348.359 66.0156 347.793 66.1211 347.121 66.1211C346.801 66.1211 346.539 66.1016 346.336 66.0625C346.133 66.0234 345.891 65.9688 345.609 65.8984V63.4258C345.695 63.4258 345.785 63.4258 345.879 63.4258C345.973 63.4336 346.062 63.4375 346.148 63.4375C346.594 63.4375 346.957 63.3867 347.238 63.2852C347.52 63.1836 347.746 63.0273 347.918 62.8164C348.09 62.6133 348.227 62.3477 348.328 62.0195L349.277 59.5703ZM347.871 48.3203L350.625 57.5078L351.105 61.082L348.809 61.3281L344.25 48.3203H347.871ZM364.465 57.4961C364.465 57.2539 364.395 57.0352 364.254 56.8398C364.113 56.6445 363.852 56.4648 363.469 56.3008C363.094 56.1289 362.551 55.9727 361.84 55.832C361.199 55.6914 360.602 55.5156 360.047 55.3047C359.5 55.0859 359.023 54.8242 358.617 54.5195C358.219 54.2148 357.906 53.8555 357.68 53.4414C357.453 53.0195 357.34 52.5391 357.34 52C357.34 51.4688 357.453 50.9688 357.68 50.5C357.914 50.0312 358.246 49.6172 358.676 49.2578C359.113 48.8906 359.645 48.6055 360.27 48.4023C360.902 48.1914 361.613 48.0859 362.402 48.0859C363.504 48.0859 364.449 48.2617 365.238 48.6133C366.035 48.9648 366.645 49.4492 367.066 50.0664C367.496 50.6758 367.711 51.3711 367.711 52.1523H364.336C364.336 51.8242 364.266 51.5312 364.125 51.2734C363.992 51.0078 363.781 50.8008 363.492 50.6523C363.211 50.4961 362.844 50.418 362.391 50.418C362.016 50.418 361.691 50.4844 361.418 50.6172C361.145 50.7422 360.934 50.9141 360.785 51.1328C360.645 51.3438 360.574 51.5781 360.574 51.8359C360.574 52.0312 360.613 52.207 360.691 52.3633C360.777 52.5117 360.914 52.6484 361.102 52.7734C361.289 52.8984 361.531 53.0156 361.828 53.125C362.133 53.2266 362.508 53.3203 362.953 53.4062C363.867 53.5938 364.684 53.8398 365.402 54.1445C366.121 54.4414 366.691 54.8477 367.113 55.3633C367.535 55.8711 367.746 56.5391 367.746 57.3672C367.746 57.9297 367.621 58.4453 367.371 58.9141C367.121 59.3828 366.762 59.793 366.293 60.1445C365.824 60.4883 365.262 60.7578 364.605 60.9531C363.957 61.1406 363.227 61.2344 362.414 61.2344C361.234 61.2344 360.234 61.0234 359.414 60.6016C358.602 60.1797 357.984 59.6445 357.562 58.9961C357.148 58.3398 356.941 57.668 356.941 56.9805H360.141C360.156 57.4414 360.273 57.8125 360.492 58.0938C360.719 58.375 361.004 58.5781 361.348 58.7031C361.699 58.8281 362.078 58.8906 362.484 58.8906C362.922 58.8906 363.285 58.832 363.574 58.7148C363.863 58.5898 364.082 58.4258 364.23 58.2227C364.387 58.0117 364.465 57.7695 364.465 57.4961ZM373.5 48.3203V61H370.113V48.3203H373.5ZM369.902 45.0156C369.902 44.5234 370.074 44.1172 370.418 43.7969C370.762 43.4766 371.223 43.3164 371.801 43.3164C372.371 43.3164 372.828 43.4766 373.172 43.7969C373.523 44.1172 373.699 44.5234 373.699 45.0156C373.699 45.5078 373.523 45.9141 373.172 46.2344C372.828 46.5547 372.371 46.7148 371.801 46.7148C371.223 46.7148 370.762 46.5547 370.418 46.2344C370.074 45.9141 369.902 45.5078 369.902 45.0156ZM383.145 57.4961C383.145 57.2539 383.074 57.0352 382.934 56.8398C382.793 56.6445 382.531 56.4648 382.148 56.3008C381.773 56.1289 381.23 55.9727 380.52 55.832C379.879 55.6914 379.281 55.5156 378.727 55.3047C378.18 55.0859 377.703 54.8242 377.297 54.5195C376.898 54.2148 376.586 53.8555 376.359 53.4414C376.133 53.0195 376.02 52.5391 376.02 52C376.02 51.4688 376.133 50.9688 376.359 50.5C376.594 50.0312 376.926 49.6172 377.355 49.2578C377.793 48.8906 378.324 48.6055 378.949 48.4023C379.582 48.1914 380.293 48.0859 381.082 48.0859C382.184 48.0859 383.129 48.2617 383.918 48.6133C384.715 48.9648 385.324 49.4492 385.746 50.0664C386.176 50.6758 386.391 51.3711 386.391 52.1523H383.016C383.016 51.8242 382.945 51.5312 382.805 51.2734C382.672 51.0078 382.461 50.8008 382.172 50.6523C381.891 50.4961 381.523 50.418 381.07 50.418C380.695 50.418 380.371 50.4844 380.098 50.6172C379.824 50.7422 379.613 50.9141 379.465 51.1328C379.324 51.3438 379.254 51.5781 379.254 51.8359C379.254 52.0312 379.293 52.207 379.371 52.3633C379.457 52.5117 379.594 52.6484 379.781 52.7734C379.969 52.8984 380.211 53.0156 380.508 53.125C380.812 53.2266 381.188 53.3203 381.633 53.4062C382.547 53.5938 383.363 53.8398 384.082 54.1445C384.801 54.4414 385.371 54.8477 385.793 55.3633C386.215 55.8711 386.426 56.5391 386.426 57.3672C386.426 57.9297 386.301 58.4453 386.051 58.9141C385.801 59.3828 385.441 59.793 384.973 60.1445C384.504 60.4883 383.941 60.7578 383.285 60.9531C382.637 61.1406 381.906 61.2344 381.094 61.2344C379.914 61.2344 378.914 61.0234 378.094 60.6016C377.281 60.1797 376.664 59.6445 376.242 58.9961C375.828 58.3398 375.621 57.668 375.621 56.9805H378.82C378.836 57.4414 378.953 57.8125 379.172 58.0938C379.398 58.375 379.684 58.5781 380.027 58.7031C380.379 58.8281 380.758 58.8906 381.164 58.8906C381.602 58.8906 381.965 58.832 382.254 58.7148C382.543 58.5898 382.762 58.4258 382.91 58.2227C383.066 58.0117 383.145 57.7695 383.145 57.4961Z" fill="#888888"/>
<path d="M109.219 107.422H100.734V101.07H109.219C110.375 101.07 111.312 100.875 112.031 100.484C112.75 100.094 113.273 99.5547 113.602 98.8672C113.945 98.1641 114.117 97.375 114.117 96.5C114.117 95.5625 113.945 94.6953 113.602 93.8984C113.273 93.1016 112.75 92.4609 112.031 91.9766C111.312 91.4766 110.375 91.2266 109.219 91.2266H103.828V119H95.6016V84.875H109.219C111.953 84.875 114.305 85.375 116.273 86.375C118.258 87.375 119.781 88.75 120.844 90.5C121.906 92.2344 122.438 94.2188 122.438 96.4531C122.438 98.6562 121.906 100.578 120.844 102.219C119.781 103.859 118.258 105.141 116.273 106.062C114.305 106.969 111.953 107.422 109.219 107.422ZM134.461 99.9219V119H126.562V93.6406H133.945L134.461 99.9219ZM141.961 93.4531L141.82 100.789C141.508 100.758 141.086 100.719 140.555 100.672C140.023 100.625 139.578 100.602 139.219 100.602C138.297 100.602 137.5 100.711 136.828 100.93C136.172 101.133 135.625 101.445 135.188 101.867C134.766 102.273 134.453 102.789 134.25 103.414C134.062 104.039 133.977 104.766 133.992 105.594L132.562 104.656C132.562 102.953 132.727 101.406 133.055 100.016C133.398 98.6094 133.883 97.3984 134.508 96.3828C135.133 95.3516 135.891 94.5625 136.781 94.0156C137.672 93.4531 138.672 93.1719 139.781 93.1719C140.172 93.1719 140.555 93.1953 140.93 93.2422C141.32 93.2891 141.664 93.3594 141.961 93.4531ZM142.852 106.578V106.086C142.852 104.227 143.117 102.516 143.648 100.953C144.18 99.375 144.961 98.0078 145.992 96.8516C147.023 95.6953 148.297 94.7969 149.812 94.1562C151.328 93.5 153.078 93.1719 155.062 93.1719C157.062 93.1719 158.82 93.5 160.336 94.1562C161.867 94.7969 163.148 95.6953 164.18 96.8516C165.211 98.0078 165.992 99.375 166.523 100.953C167.055 102.516 167.32 104.227 167.32 106.086V106.578C167.32 108.422 167.055 110.133 166.523 111.711C165.992 113.273 165.211 114.641 164.18 115.812C163.148 116.969 161.875 117.867 160.359 118.508C158.844 119.148 157.094 119.469 155.109 119.469C153.125 119.469 151.367 119.148 149.836 118.508C148.305 117.867 147.023 116.969 145.992 115.812C144.961 114.641 144.18 113.273 143.648 111.711C143.117 110.133 142.852 108.422 142.852 106.578ZM150.75 106.086V106.578C150.75 107.531 150.82 108.422 150.961 109.25C151.102 110.078 151.336 110.805 151.664 111.43C151.992 112.039 152.438 112.516 153 112.859C153.562 113.203 154.266 113.375 155.109 113.375C155.938 113.375 156.625 113.203 157.172 112.859C157.734 112.516 158.18 112.039 158.508 111.43C158.836 110.805 159.07 110.078 159.211 109.25C159.352 108.422 159.422 107.531 159.422 106.578V106.086C159.422 105.164 159.352 104.297 159.211 103.484C159.07 102.656 158.836 101.93 158.508 101.305C158.18 100.664 157.734 100.164 157.172 99.8047C156.609 99.4453 155.906 99.2656 155.062 99.2656C154.234 99.2656 153.539 99.4453 152.977 99.8047C152.43 100.164 151.992 100.664 151.664 101.305C151.336 101.93 151.102 102.656 150.961 103.484C150.82 104.297 150.75 105.164 150.75 106.086ZM184.195 93.6406V99.125H168.914V93.6406H184.195ZM172.125 87.3359H180.023V110.727C180.023 111.398 180.102 111.922 180.258 112.297C180.414 112.656 180.68 112.914 181.055 113.07C181.445 113.211 181.961 113.281 182.602 113.281C183.055 113.281 183.43 113.273 183.727 113.258C184.023 113.227 184.305 113.188 184.57 113.141V118.789C183.898 119.008 183.195 119.172 182.461 119.281C181.727 119.406 180.945 119.469 180.117 119.469C178.43 119.469 176.984 119.203 175.781 118.672C174.594 118.141 173.688 117.305 173.062 116.164C172.438 115.023 172.125 113.539 172.125 111.711V87.3359ZM185.648 106.578V106.086C185.648 104.227 185.914 102.516 186.445 100.953C186.977 99.375 187.758 98.0078 188.789 96.8516C189.82 95.6953 191.094 94.7969 192.609 94.1562C194.125 93.5 195.875 93.1719 197.859 93.1719C199.859 93.1719 201.617 93.5 203.133 94.1562C204.664 94.7969 205.945 95.6953 206.977 96.8516C208.008 98.0078 208.789 99.375 209.32 100.953C209.852 102.516 210.117 104.227 210.117 106.086V106.578C210.117 108.422 209.852 110.133 209.32 111.711C208.789 113.273 208.008 114.641 206.977 115.812C205.945 116.969 204.672 117.867 203.156 118.508C201.641 119.148 199.891 119.469 197.906 119.469C195.922 119.469 194.164 119.148 192.633 118.508C191.102 117.867 189.82 116.969 188.789 115.812C187.758 114.641 186.977 113.273 186.445 111.711C185.914 110.133 185.648 108.422 185.648 106.578ZM193.547 106.086V106.578C193.547 107.531 193.617 108.422 193.758 109.25C193.898 110.078 194.133 110.805 194.461 111.43C194.789 112.039 195.234 112.516 195.797 112.859C196.359 113.203 197.062 113.375 197.906 113.375C198.734 113.375 199.422 113.203 199.969 112.859C200.531 112.516 200.977 112.039 201.305 111.43C201.633 110.805 201.867 110.078 202.008 109.25C202.148 108.422 202.219 107.531 202.219 106.578V106.086C202.219 105.164 202.148 104.297 202.008 103.484C201.867 102.656 201.633 101.93 201.305 101.305C200.977 100.664 200.531 100.164 199.969 99.8047C199.406 99.4453 198.703 99.2656 197.859 99.2656C197.031 99.2656 196.336 99.4453 195.773 99.8047C195.227 100.164 194.789 100.664 194.461 101.305C194.133 101.93 193.898 102.656 193.758 103.484C193.617 104.297 193.547 105.164 193.547 106.086ZM226.992 93.6406V99.125H211.711V93.6406H226.992ZM214.922 87.3359H222.82V110.727C222.82 111.398 222.898 111.922 223.055 112.297C223.211 112.656 223.477 112.914 223.852 113.07C224.242 113.211 224.758 113.281 225.398 113.281C225.852 113.281 226.227 113.273 226.523 113.258C226.82 113.227 227.102 113.188 227.367 113.141V118.789C226.695 119.008 225.992 119.172 225.258 119.281C224.523 119.406 223.742 119.469 222.914 119.469C221.227 119.469 219.781 119.203 218.578 118.672C217.391 118.141 216.484 117.305 215.859 116.164C215.234 115.023 214.922 113.539 214.922 111.711V87.3359ZM237.914 116.023L244.477 93.6406H252.961L242.766 122.773C242.547 123.414 242.258 124.102 241.898 124.836C241.539 125.586 241.047 126.297 240.422 126.969C239.797 127.641 238.992 128.188 238.008 128.609C237.039 129.031 235.836 129.242 234.398 129.242C233.633 129.242 233.07 129.203 232.711 129.125C232.367 129.062 231.836 128.945 231.117 128.773V123.125C231.32 123.125 231.492 123.125 231.633 123.125C231.789 123.125 231.961 123.125 232.148 123.125C232.992 123.125 233.664 123.039 234.164 122.867C234.68 122.695 235.07 122.445 235.336 122.117C235.617 121.789 235.836 121.391 235.992 120.922L237.914 116.023ZM236.25 93.6406L241.242 111.383L242.109 119.75H236.812L227.789 93.6406H236.25ZM262.992 98.5156V128.75H255.094V93.6406H262.453L262.992 98.5156ZM278.555 106.016V106.508C278.555 108.352 278.344 110.062 277.922 111.641C277.5 113.219 276.875 114.594 276.047 115.766C275.219 116.938 274.188 117.852 272.953 118.508C271.734 119.148 270.32 119.469 268.711 119.469C267.195 119.469 265.891 119.133 264.797 118.461C263.703 117.789 262.789 116.859 262.055 115.672C261.32 114.484 260.727 113.125 260.273 111.594C259.82 110.062 259.461 108.445 259.195 106.742V106.109C259.461 104.281 259.82 102.586 260.273 101.023C260.727 99.4453 261.32 98.0703 262.055 96.8984C262.789 95.7266 263.695 94.8125 264.773 94.1562C265.867 93.5 267.172 93.1719 268.688 93.1719C270.297 93.1719 271.711 93.4766 272.93 94.0859C274.164 94.6953 275.195 95.5703 276.023 96.7109C276.867 97.8359 277.5 99.1875 277.922 100.766C278.344 102.344 278.555 104.094 278.555 106.016ZM270.656 106.508V106.016C270.656 105.031 270.586 104.133 270.445 103.32C270.305 102.492 270.078 101.773 269.766 101.164C269.469 100.555 269.07 100.086 268.57 99.7578C268.07 99.4297 267.453 99.2656 266.719 99.2656C265.875 99.2656 265.164 99.3984 264.586 99.6641C264.023 99.9141 263.57 100.305 263.227 100.836C262.898 101.352 262.664 102 262.523 102.781C262.398 103.547 262.344 104.445 262.359 105.477V107.398C262.328 108.586 262.445 109.633 262.711 110.539C262.977 111.43 263.438 112.125 264.094 112.625C264.75 113.125 265.641 113.375 266.766 113.375C267.516 113.375 268.141 113.203 268.641 112.859C269.141 112.5 269.539 112.008 269.836 111.383C270.133 110.742 270.344 110.008 270.469 109.18C270.594 108.352 270.656 107.461 270.656 106.508ZM290.414 93.6406V119H282.492V93.6406H290.414ZM282.023 87.1016C282.023 85.9766 282.43 85.0547 283.242 84.3359C284.055 83.6172 285.109 83.2578 286.406 83.2578C287.703 83.2578 288.758 83.6172 289.57 84.3359C290.383 85.0547 290.789 85.9766 290.789 87.1016C290.789 88.2266 290.383 89.1484 289.57 89.8672C288.758 90.5859 287.703 90.9453 286.406 90.9453C285.109 90.9453 284.055 90.5859 283.242 89.8672C282.43 89.1484 282.023 88.2266 282.023 87.1016ZM303.047 99.0547V119H295.148V93.6406H302.555L303.047 99.0547ZM302.109 105.453L300.258 105.5C300.258 103.562 300.492 101.836 300.961 100.32C301.43 98.7891 302.094 97.4922 302.953 96.4297C303.812 95.3672 304.836 94.5625 306.023 94.0156C307.227 93.4531 308.562 93.1719 310.031 93.1719C311.203 93.1719 312.273 93.3438 313.242 93.6875C314.227 94.0312 315.07 94.5859 315.773 95.3516C316.492 96.1172 317.039 97.1328 317.414 98.3984C317.805 99.6484 318 101.195 318 103.039V119H310.055V103.016C310.055 102 309.914 101.227 309.633 100.695C309.352 100.148 308.945 99.7734 308.414 99.5703C307.883 99.3672 307.234 99.2656 306.469 99.2656C305.656 99.2656 304.969 99.4219 304.406 99.7344C303.844 100.047 303.391 100.484 303.047 101.047C302.719 101.594 302.477 102.242 302.32 102.992C302.18 103.742 302.109 104.562 302.109 105.453ZM338.32 93.6406H345.492V118.016C345.492 120.359 344.953 122.344 343.875 123.969C342.797 125.609 341.289 126.852 339.352 127.695C337.43 128.555 335.18 128.984 332.602 128.984C331.461 128.984 330.297 128.836 329.109 128.539C327.922 128.258 326.812 127.836 325.781 127.273C324.75 126.711 323.883 126.016 323.18 125.188L326.484 120.547C327.125 121.266 327.93 121.875 328.898 122.375C329.867 122.891 331.008 123.148 332.32 123.148C333.461 123.148 334.414 122.945 335.18 122.539C335.961 122.133 336.555 121.539 336.961 120.758C337.367 119.992 337.57 119.062 337.57 117.969V99.6406L338.32 93.6406ZM321.469 106.625V106.133C321.469 104.211 321.703 102.461 322.172 100.883C322.656 99.2891 323.344 97.9219 324.234 96.7812C325.141 95.625 326.234 94.7344 327.516 94.1094C328.797 93.4844 330.242 93.1719 331.852 93.1719C333.586 93.1719 335.008 93.5078 336.117 94.1797C337.242 94.8359 338.141 95.7578 338.812 96.9453C339.5 98.1328 340.031 99.5234 340.406 101.117C340.797 102.695 341.125 104.398 341.391 106.227V106.812C341.125 108.531 340.758 110.156 340.289 111.688C339.836 113.203 339.242 114.547 338.508 115.719C337.773 116.891 336.852 117.812 335.742 118.484C334.648 119.141 333.336 119.469 331.805 119.469C330.211 119.469 328.773 119.148 327.492 118.508C326.227 117.867 325.141 116.969 324.234 115.812C323.344 114.656 322.656 113.297 322.172 111.734C321.703 110.172 321.469 108.469 321.469 106.625ZM329.367 106.133V106.625C329.367 107.578 329.453 108.461 329.625 109.273C329.812 110.086 330.094 110.805 330.469 111.43C330.844 112.039 331.305 112.516 331.852 112.859C332.414 113.203 333.07 113.375 333.82 113.375C334.961 113.375 335.883 113.133 336.586 112.648C337.289 112.164 337.797 111.477 338.109 110.586C338.422 109.695 338.555 108.648 338.508 107.445V105.594C338.539 104.562 338.469 103.656 338.297 102.875C338.125 102.078 337.852 101.414 337.477 100.883C337.117 100.352 336.633 99.9531 336.023 99.6875C335.43 99.4062 334.711 99.2656 333.867 99.2656C333.133 99.2656 332.484 99.4375 331.922 99.7812C331.359 100.125 330.891 100.609 330.516 101.234C330.141 101.844 329.852 102.57 329.648 103.414C329.461 104.242 329.367 105.148 329.367 106.133Z" fill="black"/>
<path d="M1134 0H1348C1356.28 0 1363 6.71573 1363 15V148C1363 156.284 1356.28 163 1348 163H1134V0Z" fill="#C91761"/>
<path fill-rule="evenodd" clip-rule="evenodd" d="M1202.75 46.5018C1202.75 45.3973 1203.65 44.5018 1204.75 44.5018H1292.25C1293.35 44.5018 1294.25 45.3973 1294.25 46.5018V116.498C1294.25 117.603 1293.35 118.498 1292.25 118.498H1204.75C1203.65 118.498 1202.75 117.603 1202.75 116.498V46.5018ZM1206.75 48.5018V52.9963H1290.25V48.5018H1206.75ZM1290.25 56.9963H1235.19V114.498H1290.25V56.9963ZM1231.19 114.498V56.9963H1206.75V114.498H1231.19Z" fill="white"/>
<path fill-rule="evenodd" clip-rule="evenodd" d="M1209.72 62.3022C1209.72 61.1976 1210.62 60.3022 1211.72 60.3022H1225.72C1226.83 60.3022 1227.72 61.1976 1227.72 62.3022V81.6974C1227.72 82.802 1226.83 83.6974 1225.72 83.6974H1211.72C1210.62 83.6974 1209.72 82.802 1209.72 81.6974V62.3022ZM1213.72 64.3022V79.6974H1223.72V64.3022H1213.72ZM1239.33 63.1982C1239.33 62.0936 1240.22 61.1982 1241.33 61.1982H1284.25C1285.36 61.1982 1286.25 62.0936 1286.25 63.1982V109.407C1286.25 110.511 1285.36 111.407 1284.25 111.407H1241.33C1240.22 111.407 1239.33 110.511 1239.33 109.407V63.1982ZM1243.33 65.1982V107.407H1282.25V65.1982H1243.33ZM1209.56 93.4381C1209.56 92.3336 1210.46 91.4381 1211.56 91.4381H1220.48C1221.59 91.4381 1222.48 92.3336 1222.48 93.4381C1222.48 94.5427 1221.59 95.4381 1220.48 95.4381H1211.56C1210.46 95.4381 1209.56 94.5427 1209.56 93.4381ZM1209.56 100.438C1209.56 99.3335 1210.46 98.4381 1211.56 98.4381H1226.1C1227.21 98.4381 1228.1 99.3335 1228.1 100.438C1228.1 101.543 1227.21 102.438 1226.1 102.438H1211.56C1210.46 102.438 1209.56 101.543 1209.56 100.438ZM1209.56 107.438C1209.56 106.334 1210.46 105.438 1211.56 105.438H1220.48C1221.59 105.438 1222.48 106.334 1222.48 107.438C1222.48 108.543 1221.59 109.438 1220.48 109.438H1211.56C1210.46 109.438 1209.56 108.543 1209.56 107.438Z" fill="white"/>
</svg>
