<svg width="1363" height="163" viewBox="0 0 1363 163" fill="none" xmlns="http://www.w3.org/2000/svg">
<path d="M0 15C0 6.71573 6.71573 0 15 0H37V163H15C6.71573 163 0 156.284 0 148V15Z" fill="#0A3161"/>
<rect width="1097" height="163" transform="translate(37)" fill="#F0F0F0"/>
<path d="M101.906 53.9219L94.3945 51.2383V48.0859L104.602 52.375V54.6367L101.906 53.9219ZM94.3945 56.1719L101.918 53.4297L104.602 52.7852V55.0352L94.3945 59.3242V56.1719ZM122.32 43.9375H125.824V55.2109C125.824 56.5234 125.543 57.6289 124.98 58.5273C124.426 59.4258 123.656 60.1016 122.672 60.5547C121.695 61.0078 120.57 61.2344 119.297 61.2344C118.023 61.2344 116.891 61.0078 115.898 60.5547C114.914 60.1016 114.141 59.4258 113.578 58.5273C113.023 57.6289 112.746 56.5234 112.746 55.2109V43.9375H116.262V55.2109C116.262 55.9766 116.383 56.6016 116.625 57.0859C116.867 57.5703 117.215 57.9258 117.668 58.1523C118.129 58.3789 118.672 58.4922 119.297 58.4922C119.938 58.4922 120.48 58.3789 120.926 58.1523C121.379 57.9258 121.723 57.5703 121.957 57.0859C122.199 56.6016 122.32 55.9766 122.32 55.2109V43.9375ZM128.672 59.3711C128.672 58.8711 128.844 58.4531 129.188 58.1172C129.539 57.7812 130.004 57.6133 130.582 57.6133C131.16 57.6133 131.621 57.7812 131.965 58.1172C132.316 58.4531 132.492 58.8711 132.492 59.3711C132.492 59.8711 132.316 60.2891 131.965 60.625C131.621 60.9609 131.16 61.1289 130.582 61.1289C130.004 61.1289 129.539 60.9609 129.188 60.625C128.844 60.2891 128.672 59.8711 128.672 59.3711ZM144.562 56.5352C144.562 56.2305 144.516 55.957 144.422 55.7148C144.336 55.4648 144.172 55.2383 143.93 55.0352C143.688 54.8242 143.348 54.6172 142.91 54.4141C142.473 54.2109 141.906 54 141.211 53.7812C140.438 53.5312 139.703 53.25 139.008 52.9375C138.32 52.625 137.711 52.2617 137.18 51.8477C136.656 51.4258 136.242 50.9375 135.938 50.3828C135.641 49.8281 135.492 49.1836 135.492 48.4492C135.492 47.7383 135.648 47.0938 135.961 46.5156C136.273 45.9297 136.711 45.4297 137.273 45.0156C137.836 44.5938 138.5 44.2695 139.266 44.043C140.039 43.8164 140.887 43.7031 141.809 43.7031C143.066 43.7031 144.164 43.9297 145.102 44.3828C146.039 44.8359 146.766 45.457 147.281 46.2461C147.805 47.0352 148.066 47.9375 148.066 48.9531H144.574C144.574 48.4531 144.469 48.0156 144.258 47.6406C144.055 47.2578 143.742 46.957 143.32 46.7383C142.906 46.5195 142.383 46.4102 141.75 46.4102C141.141 46.4102 140.633 46.5039 140.227 46.6914C139.82 46.8711 139.516 47.1172 139.312 47.4297C139.109 47.7344 139.008 48.0781 139.008 48.4609C139.008 48.75 139.078 49.0117 139.219 49.2461C139.367 49.4805 139.586 49.6992 139.875 49.9023C140.164 50.1055 140.52 50.2969 140.941 50.4766C141.363 50.6562 141.852 50.832 142.406 51.0039C143.336 51.2852 144.152 51.6016 144.855 51.9531C145.566 52.3047 146.16 52.6992 146.637 53.1367C147.113 53.5742 147.473 54.0703 147.715 54.625C147.957 55.1797 148.078 55.8086 148.078 56.5117C148.078 57.2539 147.934 57.918 147.645 58.5039C147.355 59.0898 146.938 59.5859 146.391 59.9922C145.844 60.3984 145.191 60.707 144.434 60.918C143.676 61.1289 142.828 61.2344 141.891 61.2344C141.047 61.2344 140.215 61.125 139.395 60.9062C138.574 60.6797 137.828 60.3398 137.156 59.8867C136.492 59.4336 135.961 58.8555 135.562 58.1523C135.164 57.4492 134.965 56.6172 134.965 55.6562H138.492C138.492 56.1875 138.574 56.6367 138.738 57.0039C138.902 57.3711 139.133 57.668 139.43 57.8945C139.734 58.1211 140.094 58.2852 140.508 58.3867C140.93 58.4883 141.391 58.5391 141.891 58.5391C142.5 58.5391 143 58.4531 143.391 58.2812C143.789 58.1094 144.082 57.8711 144.27 57.5664C144.465 57.2617 144.562 56.918 144.562 56.5352ZM150.422 59.3711C150.422 58.8711 150.594 58.4531 150.938 58.1172C151.289 57.7812 151.754 57.6133 152.332 57.6133C152.91 57.6133 153.371 57.7812 153.715 58.1172C154.066 58.4531 154.242 58.8711 154.242 59.3711C154.242 59.8711 154.066 60.2891 153.715 60.625C153.371 60.9609 152.91 61.1289 152.332 61.1289C151.754 61.1289 151.289 60.9609 150.938 60.625C150.594 60.2891 150.422 59.8711 150.422 59.3711ZM164.367 46.8555L159.727 61H155.988L162.328 43.9375H164.707L164.367 46.8555ZM168.223 61L163.57 46.8555L163.195 43.9375H165.598L171.973 61H168.223ZM168.012 54.6484V57.4023H159V54.6484H168.012ZM179.531 43.9375H185.895C187.199 43.9375 188.32 44.1328 189.258 44.5234C190.203 44.9141 190.93 45.4922 191.438 46.2578C191.945 47.0234 192.199 47.9648 192.199 49.082C192.199 49.9961 192.043 50.7812 191.73 51.4375C191.426 52.0859 190.992 52.6289 190.43 53.0664C189.875 53.4961 189.223 53.8398 188.473 54.0977L187.359 54.6836H181.828L181.805 51.9414H185.918C186.535 51.9414 187.047 51.832 187.453 51.6133C187.859 51.3945 188.164 51.0898 188.367 50.6992C188.578 50.3086 188.684 49.8555 188.684 49.3398C188.684 48.793 188.582 48.3203 188.379 47.9219C188.176 47.5234 187.867 47.2188 187.453 47.0078C187.039 46.7969 186.52 46.6914 185.895 46.6914H183.047V61H179.531V43.9375ZM189.07 61L185.18 53.3945L188.895 53.3711L192.832 60.8359V61H189.07ZM200.531 61.2344C199.547 61.2344 198.664 61.0781 197.883 60.7656C197.102 60.4453 196.438 60.0039 195.891 59.4414C195.352 58.8789 194.938 58.2266 194.648 57.4844C194.359 56.7344 194.215 55.9375 194.215 55.0938V54.625C194.215 53.6641 194.352 52.7852 194.625 51.9883C194.898 51.1914 195.289 50.5 195.797 49.9141C196.312 49.3281 196.938 48.8789 197.672 48.5664C198.406 48.2461 199.234 48.0859 200.156 48.0859C201.055 48.0859 201.852 48.2344 202.547 48.5312C203.242 48.8281 203.824 49.25 204.293 49.7969C204.77 50.3438 205.129 51 205.371 51.7656C205.613 52.5234 205.734 53.3672 205.734 54.2969V55.7031H195.656V53.4531H202.418V53.1953C202.418 52.7266 202.332 52.3086 202.16 51.9414C201.996 51.5664 201.746 51.2695 201.41 51.0508C201.074 50.832 200.645 50.7227 200.121 50.7227C199.676 50.7227 199.293 50.8203 198.973 51.0156C198.652 51.2109 198.391 51.4844 198.188 51.8359C197.992 52.1875 197.844 52.6016 197.742 53.0781C197.648 53.5469 197.602 54.0625 197.602 54.625V55.0938C197.602 55.6016 197.672 56.0703 197.812 56.5C197.961 56.9297 198.168 57.3008 198.434 57.6133C198.707 57.9258 199.035 58.168 199.418 58.3398C199.809 58.5117 200.25 58.5977 200.742 58.5977C201.352 58.5977 201.918 58.4805 202.441 58.2461C202.973 58.0039 203.43 57.6406 203.812 57.1562L205.453 58.9375C205.188 59.3203 204.824 59.6875 204.363 60.0391C203.91 60.3906 203.363 60.6797 202.723 60.9062C202.082 61.125 201.352 61.2344 200.531 61.2344ZM212.895 58.5977C213.309 58.5977 213.676 58.5195 213.996 58.3633C214.316 58.1992 214.566 57.9727 214.746 57.6836C214.934 57.3867 215.031 57.0391 215.039 56.6406H218.215C218.207 57.5312 217.969 58.3242 217.5 59.0195C217.031 59.707 216.402 60.25 215.613 60.6484C214.824 61.0391 213.941 61.2344 212.965 61.2344C211.98 61.2344 211.121 61.0703 210.387 60.7422C209.66 60.4141 209.055 59.9609 208.57 59.3828C208.086 58.7969 207.723 58.1172 207.48 57.3438C207.238 56.5625 207.117 55.7266 207.117 54.8359V54.4961C207.117 53.5977 207.238 52.7617 207.48 51.9883C207.723 51.207 208.086 50.5273 208.57 49.9492C209.055 49.3633 209.66 48.9062 210.387 48.5781C211.113 48.25 211.965 48.0859 212.941 48.0859C213.98 48.0859 214.891 48.2852 215.672 48.6836C216.461 49.082 217.078 49.6523 217.523 50.3945C217.977 51.1289 218.207 52 218.215 53.0078H215.039C215.031 52.5859 214.941 52.2031 214.77 51.8594C214.605 51.5156 214.363 51.2422 214.043 51.0391C213.73 50.8281 213.344 50.7227 212.883 50.7227C212.391 50.7227 211.988 50.8281 211.676 51.0391C211.363 51.2422 211.121 51.5234 210.949 51.8828C210.777 52.2344 210.656 52.6367 210.586 53.0898C210.523 53.5352 210.492 54.0039 210.492 54.4961V54.8359C210.492 55.3281 210.523 55.8008 210.586 56.2539C210.648 56.707 210.766 57.1094 210.938 57.4609C211.117 57.8125 211.363 58.0898 211.676 58.293C211.988 58.4961 212.395 58.5977 212.895 58.5977ZM226.008 61.2344C225.023 61.2344 224.141 61.0781 223.359 60.7656C222.578 60.4453 221.914 60.0039 221.367 59.4414C220.828 58.8789 220.414 58.2266 220.125 57.4844C219.836 56.7344 219.691 55.9375 219.691 55.0938V54.625C219.691 53.6641 219.828 52.7852 220.102 51.9883C220.375 51.1914 220.766 50.5 221.273 49.9141C221.789 49.3281 222.414 48.8789 223.148 48.5664C223.883 48.2461 224.711 48.0859 225.633 48.0859C226.531 48.0859 227.328 48.2344 228.023 48.5312C228.719 48.8281 229.301 49.25 229.77 49.7969C230.246 50.3438 230.605 51 230.848 51.7656C231.09 52.5234 231.211 53.3672 231.211 54.2969V55.7031H221.133V53.4531H227.895V53.1953C227.895 52.7266 227.809 52.3086 227.637 51.9414C227.473 51.5664 227.223 51.2695 226.887 51.0508C226.551 50.832 226.121 50.7227 225.598 50.7227C225.152 50.7227 224.77 50.8203 224.449 51.0156C224.129 51.2109 223.867 51.4844 223.664 51.8359C223.469 52.1875 223.32 52.6016 223.219 53.0781C223.125 53.5469 223.078 54.0625 223.078 54.625V55.0938C223.078 55.6016 223.148 56.0703 223.289 56.5C223.438 56.9297 223.645 57.3008 223.91 57.6133C224.184 57.9258 224.512 58.168 224.895 58.3398C225.285 58.5117 225.727 58.5977 226.219 58.5977C226.828 58.5977 227.395 58.4805 227.918 58.2461C228.449 58.0039 228.906 57.6406 229.289 57.1562L230.93 58.9375C230.664 59.3203 230.301 59.6875 229.84 60.0391C229.387 60.3906 228.84 60.6797 228.199 60.9062C227.559 61.125 226.828 61.2344 226.008 61.2344ZM239.988 57.4961C239.988 57.2539 239.918 57.0352 239.777 56.8398C239.637 56.6445 239.375 56.4648 238.992 56.3008C238.617 56.1289 238.074 55.9727 237.363 55.832C236.723 55.6914 236.125 55.5156 235.57 55.3047C235.023 55.0859 234.547 54.8242 234.141 54.5195C233.742 54.2148 233.43 53.8555 233.203 53.4414C232.977 53.0195 232.863 52.5391 232.863 52C232.863 51.4688 232.977 50.9688 233.203 50.5C233.438 50.0312 233.77 49.6172 234.199 49.2578C234.637 48.8906 235.168 48.6055 235.793 48.4023C236.426 48.1914 237.137 48.0859 237.926 48.0859C239.027 48.0859 239.973 48.2617 240.762 48.6133C241.559 48.9648 242.168 49.4492 242.59 50.0664C243.02 50.6758 243.234 51.3711 243.234 52.1523H239.859C239.859 51.8242 239.789 51.5312 239.648 51.2734C239.516 51.0078 239.305 50.8008 239.016 50.6523C238.734 50.4961 238.367 50.418 237.914 50.418C237.539 50.418 237.215 50.4844 236.941 50.6172C236.668 50.7422 236.457 50.9141 236.309 51.1328C236.168 51.3438 236.098 51.5781 236.098 51.8359C236.098 52.0312 236.137 52.207 236.215 52.3633C236.301 52.5117 236.438 52.6484 236.625 52.7734C236.812 52.8984 237.055 53.0156 237.352 53.125C237.656 53.2266 238.031 53.3203 238.477 53.4062C239.391 53.5938 240.207 53.8398 240.926 54.1445C241.645 54.4414 242.215 54.8477 242.637 55.3633C243.059 55.8711 243.27 56.5391 243.27 57.3672C243.27 57.9297 243.145 58.4453 242.895 58.9141C242.645 59.3828 242.285 59.793 241.816 60.1445C241.348 60.4883 240.785 60.7578 240.129 60.9531C239.48 61.1406 238.75 61.2344 237.938 61.2344C236.758 61.2344 235.758 61.0234 234.938 60.6016C234.125 60.1797 233.508 59.6445 233.086 58.9961C232.672 58.3398 232.465 57.668 232.465 56.9805H235.664C235.68 57.4414 235.797 57.8125 236.016 58.0938C236.242 58.375 236.527 58.5781 236.871 58.7031C237.223 58.8281 237.602 58.8906 238.008 58.8906C238.445 58.8906 238.809 58.832 239.098 58.7148C239.387 58.5898 239.605 58.4258 239.754 58.2227C239.91 58.0117 239.988 57.7695 239.988 57.4961ZM252.316 57.4961C252.316 57.2539 252.246 57.0352 252.105 56.8398C251.965 56.6445 251.703 56.4648 251.32 56.3008C250.945 56.1289 250.402 55.9727 249.691 55.832C249.051 55.6914 248.453 55.5156 247.898 55.3047C247.352 55.0859 246.875 54.8242 246.469 54.5195C246.07 54.2148 245.758 53.8555 245.531 53.4414C245.305 53.0195 245.191 52.5391 245.191 52C245.191 51.4688 245.305 50.9688 245.531 50.5C245.766 50.0312 246.098 49.6172 246.527 49.2578C246.965 48.8906 247.496 48.6055 248.121 48.4023C248.754 48.1914 249.465 48.0859 250.254 48.0859C251.355 48.0859 252.301 48.2617 253.09 48.6133C253.887 48.9648 254.496 49.4492 254.918 50.0664C255.348 50.6758 255.562 51.3711 255.562 52.1523H252.188C252.188 51.8242 252.117 51.5312 251.977 51.2734C251.844 51.0078 251.633 50.8008 251.344 50.6523C251.062 50.4961 250.695 50.418 250.242 50.418C249.867 50.418 249.543 50.4844 249.27 50.6172C248.996 50.7422 248.785 50.9141 248.637 51.1328C248.496 51.3438 248.426 51.5781 248.426 51.8359C248.426 52.0312 248.465 52.207 248.543 52.3633C248.629 52.5117 248.766 52.6484 248.953 52.7734C249.141 52.8984 249.383 53.0156 249.68 53.125C249.984 53.2266 250.359 53.3203 250.805 53.4062C251.719 53.5938 252.535 53.8398 253.254 54.1445C253.973 54.4414 254.543 54.8477 254.965 55.3633C255.387 55.8711 255.598 56.5391 255.598 57.3672C255.598 57.9297 255.473 58.4453 255.223 58.9141C254.973 59.3828 254.613 59.793 254.145 60.1445C253.676 60.4883 253.113 60.7578 252.457 60.9531C251.809 61.1406 251.078 61.2344 250.266 61.2344C249.086 61.2344 248.086 61.0234 247.266 60.6016C246.453 60.1797 245.836 59.6445 245.414 58.9961C245 58.3398 244.793 57.668 244.793 56.9805H247.992C248.008 57.4414 248.125 57.8125 248.344 58.0938C248.57 58.375 248.855 58.5781 249.199 58.7031C249.551 58.8281 249.93 58.8906 250.336 58.8906C250.773 58.8906 251.137 58.832 251.426 58.7148C251.715 58.5898 251.934 58.4258 252.082 58.2227C252.238 58.0117 252.316 57.7695 252.316 57.4961ZM261.352 48.3203V61H257.965V48.3203H261.352ZM257.754 45.0156C257.754 44.5234 257.926 44.1172 258.27 43.7969C258.613 43.4766 259.074 43.3164 259.652 43.3164C260.223 43.3164 260.68 43.4766 261.023 43.7969C261.375 44.1172 261.551 44.5234 261.551 45.0156C261.551 45.5078 261.375 45.9141 261.023 46.2344C260.68 46.5547 260.223 46.7148 259.652 46.7148C259.074 46.7148 258.613 46.5547 258.27 46.2344C257.926 45.9141 257.754 45.5078 257.754 45.0156ZM263.602 54.7891V54.543C263.602 53.6133 263.734 52.7578 264 51.9766C264.266 51.1875 264.652 50.5039 265.16 49.9258C265.668 49.3477 266.293 48.8984 267.035 48.5781C267.777 48.25 268.629 48.0859 269.59 48.0859C270.551 48.0859 271.406 48.25 272.156 48.5781C272.906 48.8984 273.535 49.3477 274.043 49.9258C274.559 50.5039 274.949 51.1875 275.215 51.9766C275.48 52.7578 275.613 53.6133 275.613 54.543V54.7891C275.613 55.7109 275.48 56.5664 275.215 57.3555C274.949 58.1367 274.559 58.8203 274.043 59.4062C273.535 59.9844 272.91 60.4336 272.168 60.7539C271.426 61.0742 270.574 61.2344 269.613 61.2344C268.652 61.2344 267.797 61.0742 267.047 60.7539C266.305 60.4336 265.676 59.9844 265.16 59.4062C264.652 58.8203 264.266 58.1367 264 57.3555C263.734 56.5664 263.602 55.7109 263.602 54.7891ZM266.977 54.543V54.7891C266.977 55.3203 267.023 55.8164 267.117 56.2773C267.211 56.7383 267.359 57.1445 267.562 57.4961C267.773 57.8398 268.047 58.1094 268.383 58.3047C268.719 58.5 269.129 58.5977 269.613 58.5977C270.082 58.5977 270.484 58.5 270.82 58.3047C271.156 58.1094 271.426 57.8398 271.629 57.4961C271.832 57.1445 271.98 56.7383 272.074 56.2773C272.176 55.8164 272.227 55.3203 272.227 54.7891V54.543C272.227 54.0273 272.176 53.543 272.074 53.0898C271.98 52.6289 271.828 52.2227 271.617 51.8711C271.414 51.5117 271.145 51.2305 270.809 51.0273C270.473 50.8242 270.066 50.7227 269.59 50.7227C269.113 50.7227 268.707 50.8242 268.371 51.0273C268.043 51.2305 267.773 51.5117 267.562 51.8711C267.359 52.2227 267.211 52.6289 267.117 53.0898C267.023 53.543 266.977 54.0273 266.977 54.543ZM280.992 51.0273V61H277.617V48.3203H280.781L280.992 51.0273ZM280.5 54.2148H279.586C279.586 53.2773 279.707 52.4336 279.949 51.6836C280.191 50.9258 280.531 50.2812 280.969 49.75C281.406 49.2109 281.926 48.8008 282.527 48.5195C283.137 48.2305 283.816 48.0859 284.566 48.0859C285.16 48.0859 285.703 48.1719 286.195 48.3438C286.688 48.5156 287.109 48.7891 287.461 49.1641C287.82 49.5391 288.094 50.0352 288.281 50.6523C288.477 51.2695 288.574 52.0234 288.574 52.9141V61H285.176V52.9023C285.176 52.3398 285.098 51.9023 284.941 51.5898C284.785 51.2773 284.555 51.0586 284.25 50.9336C283.953 50.8008 283.586 50.7344 283.148 50.7344C282.695 50.7344 282.301 50.8242 281.965 51.0039C281.637 51.1836 281.363 51.4336 281.145 51.7539C280.934 52.0664 280.773 52.4336 280.664 52.8555C280.555 53.2773 280.5 53.7305 280.5 54.2148ZM304.266 46.8555L299.625 61H295.887L302.227 43.9375H304.605L304.266 46.8555ZM308.121 61L303.469 46.8555L303.094 43.9375H305.496L311.871 61H308.121ZM307.91 54.6484V57.4023H298.898V54.6484H307.91ZM316.172 51.0273V61H312.797V48.3203H315.961L316.172 51.0273ZM315.68 54.2148H314.766C314.766 53.2773 314.887 52.4336 315.129 51.6836C315.371 50.9258 315.711 50.2812 316.148 49.75C316.586 49.2109 317.105 48.8008 317.707 48.5195C318.316 48.2305 318.996 48.0859 319.746 48.0859C320.34 48.0859 320.883 48.1719 321.375 48.3438C321.867 48.5156 322.289 48.7891 322.641 49.1641C323 49.5391 323.273 50.0352 323.461 50.6523C323.656 51.2695 323.754 52.0234 323.754 52.9141V61H320.355V52.9023C320.355 52.3398 320.277 51.9023 320.121 51.5898C319.965 51.2773 319.734 51.0586 319.43 50.9336C319.133 50.8008 318.766 50.7344 318.328 50.7344C317.875 50.7344 317.48 50.8242 317.145 51.0039C316.816 51.1836 316.543 51.4336 316.324 51.7539C316.113 52.0664 315.953 52.4336 315.844 52.8555C315.734 53.2773 315.68 53.7305 315.68 54.2148ZM333.164 58.1406V52.4922C333.164 52.0859 333.098 51.7383 332.965 51.4492C332.832 51.1523 332.625 50.9219 332.344 50.7578C332.07 50.5938 331.715 50.5117 331.277 50.5117C330.902 50.5117 330.578 50.5781 330.305 50.7109C330.031 50.8359 329.82 51.0195 329.672 51.2617C329.523 51.4961 329.449 51.7734 329.449 52.0938H326.074C326.074 51.5547 326.199 51.043 326.449 50.5586C326.699 50.0742 327.062 49.6484 327.539 49.2812C328.016 48.9062 328.582 48.6133 329.238 48.4023C329.902 48.1914 330.645 48.0859 331.465 48.0859C332.449 48.0859 333.324 48.25 334.09 48.5781C334.855 48.9062 335.457 49.3984 335.895 50.0547C336.34 50.7109 336.562 51.5312 336.562 52.5156V57.9414C336.562 58.6367 336.605 59.207 336.691 59.6523C336.777 60.0898 336.902 60.4727 337.066 60.8008V61H333.656C333.492 60.6562 333.367 60.2266 333.281 59.7109C333.203 59.1875 333.164 58.6641 333.164 58.1406ZM333.609 53.2773L333.633 55.1875H331.746C331.301 55.1875 330.914 55.2383 330.586 55.3398C330.258 55.4414 329.988 55.5859 329.777 55.7734C329.566 55.9531 329.41 56.1641 329.309 56.4062C329.215 56.6484 329.168 56.9141 329.168 57.2031C329.168 57.4922 329.234 57.7539 329.367 57.9883C329.5 58.2148 329.691 58.3945 329.941 58.5273C330.191 58.6523 330.484 58.7148 330.82 58.7148C331.328 58.7148 331.77 58.6133 332.145 58.4102C332.52 58.207 332.809 57.957 333.012 57.6602C333.223 57.3633 333.332 57.082 333.34 56.8164L334.23 58.2461C334.105 58.5664 333.934 58.8984 333.715 59.2422C333.504 59.5859 333.234 59.9102 332.906 60.2148C332.578 60.5117 332.184 60.7578 331.723 60.9531C331.262 61.1406 330.715 61.2344 330.082 61.2344C329.277 61.2344 328.547 61.0742 327.891 60.7539C327.242 60.4258 326.727 59.9766 326.344 59.4062C325.969 58.8281 325.781 58.1719 325.781 57.4375C325.781 56.7734 325.906 56.1836 326.156 55.668C326.406 55.1523 326.773 54.7188 327.258 54.3672C327.75 54.0078 328.363 53.7383 329.098 53.5586C329.832 53.3711 330.684 53.2773 331.652 53.2773H333.609ZM342.727 43V61H339.34V43H342.727ZM349.277 59.5703L352.641 48.3203H356.262L351.164 62.9102C351.055 63.2305 350.906 63.5742 350.719 63.9414C350.539 64.3086 350.293 64.6562 349.98 64.9844C349.676 65.3203 349.289 65.5938 348.82 65.8047C348.359 66.0156 347.793 66.1211 347.121 66.1211C346.801 66.1211 346.539 66.1016 346.336 66.0625C346.133 66.0234 345.891 65.9688 345.609 65.8984V63.4258C345.695 63.4258 345.785 63.4258 345.879 63.4258C345.973 63.4336 346.062 63.4375 346.148 63.4375C346.594 63.4375 346.957 63.3867 347.238 63.2852C347.52 63.1836 347.746 63.0273 347.918 62.8164C348.09 62.6133 348.227 62.3477 348.328 62.0195L349.277 59.5703ZM347.871 48.3203L350.625 57.5078L351.105 61.082L348.809 61.3281L344.25 48.3203H347.871ZM364.465 57.4961C364.465 57.2539 364.395 57.0352 364.254 56.8398C364.113 56.6445 363.852 56.4648 363.469 56.3008C363.094 56.1289 362.551 55.9727 361.84 55.832C361.199 55.6914 360.602 55.5156 360.047 55.3047C359.5 55.0859 359.023 54.8242 358.617 54.5195C358.219 54.2148 357.906 53.8555 357.68 53.4414C357.453 53.0195 357.34 52.5391 357.34 52C357.34 51.4688 357.453 50.9688 357.68 50.5C357.914 50.0312 358.246 49.6172 358.676 49.2578C359.113 48.8906 359.645 48.6055 360.27 48.4023C360.902 48.1914 361.613 48.0859 362.402 48.0859C363.504 48.0859 364.449 48.2617 365.238 48.6133C366.035 48.9648 366.645 49.4492 367.066 50.0664C367.496 50.6758 367.711 51.3711 367.711 52.1523H364.336C364.336 51.8242 364.266 51.5312 364.125 51.2734C363.992 51.0078 363.781 50.8008 363.492 50.6523C363.211 50.4961 362.844 50.418 362.391 50.418C362.016 50.418 361.691 50.4844 361.418 50.6172C361.145 50.7422 360.934 50.9141 360.785 51.1328C360.645 51.3438 360.574 51.5781 360.574 51.8359C360.574 52.0312 360.613 52.207 360.691 52.3633C360.777 52.5117 360.914 52.6484 361.102 52.7734C361.289 52.8984 361.531 53.0156 361.828 53.125C362.133 53.2266 362.508 53.3203 362.953 53.4062C363.867 53.5938 364.684 53.8398 365.402 54.1445C366.121 54.4414 366.691 54.8477 367.113 55.3633C367.535 55.8711 367.746 56.5391 367.746 57.3672C367.746 57.9297 367.621 58.4453 367.371 58.9141C367.121 59.3828 366.762 59.793 366.293 60.1445C365.824 60.4883 365.262 60.7578 364.605 60.9531C363.957 61.1406 363.227 61.2344 362.414 61.2344C361.234 61.2344 360.234 61.0234 359.414 60.6016C358.602 60.1797 357.984 59.6445 357.562 58.9961C357.148 58.3398 356.941 57.668 356.941 56.9805H360.141C360.156 57.4414 360.273 57.8125 360.492 58.0938C360.719 58.375 361.004 58.5781 361.348 58.7031C361.699 58.8281 362.078 58.8906 362.484 58.8906C362.922 58.8906 363.285 58.832 363.574 58.7148C363.863 58.5898 364.082 58.4258 364.23 58.2227C364.387 58.0117 364.465 57.7695 364.465 57.4961ZM373.5 48.3203V61H370.113V48.3203H373.5ZM369.902 45.0156C369.902 44.5234 370.074 44.1172 370.418 43.7969C370.762 43.4766 371.223 43.3164 371.801 43.3164C372.371 43.3164 372.828 43.4766 373.172 43.7969C373.523 44.1172 373.699 44.5234 373.699 45.0156C373.699 45.5078 373.523 45.9141 373.172 46.2344C372.828 46.5547 372.371 46.7148 371.801 46.7148C371.223 46.7148 370.762 46.5547 370.418 46.2344C370.074 45.9141 369.902 45.5078 369.902 45.0156ZM383.145 57.4961C383.145 57.2539 383.074 57.0352 382.934 56.8398C382.793 56.6445 382.531 56.4648 382.148 56.3008C381.773 56.1289 381.23 55.9727 380.52 55.832C379.879 55.6914 379.281 55.5156 378.727 55.3047C378.18 55.0859 377.703 54.8242 377.297 54.5195C376.898 54.2148 376.586 53.8555 376.359 53.4414C376.133 53.0195 376.02 52.5391 376.02 52C376.02 51.4688 376.133 50.9688 376.359 50.5C376.594 50.0312 376.926 49.6172 377.355 49.2578C377.793 48.8906 378.324 48.6055 378.949 48.4023C379.582 48.1914 380.293 48.0859 381.082 48.0859C382.184 48.0859 383.129 48.2617 383.918 48.6133C384.715 48.9648 385.324 49.4492 385.746 50.0664C386.176 50.6758 386.391 51.3711 386.391 52.1523H383.016C383.016 51.8242 382.945 51.5312 382.805 51.2734C382.672 51.0078 382.461 50.8008 382.172 50.6523C381.891 50.4961 381.523 50.418 381.07 50.418C380.695 50.418 380.371 50.4844 380.098 50.6172C379.824 50.7422 379.613 50.9141 379.465 51.1328C379.324 51.3438 379.254 51.5781 379.254 51.8359C379.254 52.0312 379.293 52.207 379.371 52.3633C379.457 52.5117 379.594 52.6484 379.781 52.7734C379.969 52.8984 380.211 53.0156 380.508 53.125C380.812 53.2266 381.188 53.3203 381.633 53.4062C382.547 53.5938 383.363 53.8398 384.082 54.1445C384.801 54.4414 385.371 54.8477 385.793 55.3633C386.215 55.8711 386.426 56.5391 386.426 57.3672C386.426 57.9297 386.301 58.4453 386.051 58.9141C385.801 59.3828 385.441 59.793 384.973 60.1445C384.504 60.4883 383.941 60.7578 383.285 60.9531C382.637 61.1406 381.906 61.2344 381.094 61.2344C379.914 61.2344 378.914 61.0234 378.094 60.6016C377.281 60.1797 376.664 59.6445 376.242 58.9961C375.828 58.3398 375.621 57.668 375.621 56.9805H378.82C378.836 57.4414 378.953 57.8125 379.172 58.0938C379.398 58.375 379.684 58.5781 380.027 58.7031C380.379 58.8281 380.758 58.8906 381.164 58.8906C381.602 58.8906 381.965 58.832 382.254 58.7148C382.543 58.5898 382.762 58.4258 382.91 58.2227C383.066 58.0117 383.145 57.7695 383.145 57.4961Z" fill="#888888"/>
<path d="M118.594 98.4219V104.75H101.086V98.4219H118.594ZM103.828 84.875V119H95.6016V84.875H103.828ZM124.125 84.875V119H115.922V84.875H124.125ZM127.992 106.578V106.086C127.992 104.227 128.258 102.516 128.789 100.953C129.32 99.375 130.102 98.0078 131.133 96.8516C132.164 95.6953 133.438 94.7969 134.953 94.1562C136.469 93.5 138.219 93.1719 140.203 93.1719C142.203 93.1719 143.961 93.5 145.477 94.1562C147.008 94.7969 148.289 95.6953 149.32 96.8516C150.352 98.0078 151.133 99.375 151.664 100.953C152.195 102.516 152.461 104.227 152.461 106.086V106.578C152.461 108.422 152.195 110.133 151.664 111.711C151.133 113.273 150.352 114.641 149.32 115.812C148.289 116.969 147.016 117.867 145.5 118.508C143.984 119.148 142.234 119.469 140.25 119.469C138.266 119.469 136.508 119.148 134.977 118.508C133.445 117.867 132.164 116.969 131.133 115.812C130.102 114.641 129.32 113.273 128.789 111.711C128.258 110.133 127.992 108.422 127.992 106.578ZM135.891 106.086V106.578C135.891 107.531 135.961 108.422 136.102 109.25C136.242 110.078 136.477 110.805 136.805 111.43C137.133 112.039 137.578 112.516 138.141 112.859C138.703 113.203 139.406 113.375 140.25 113.375C141.078 113.375 141.766 113.203 142.312 112.859C142.875 112.516 143.32 112.039 143.648 111.43C143.977 110.805 144.211 110.078 144.352 109.25C144.492 108.422 144.562 107.531 144.562 106.578V106.086C144.562 105.164 144.492 104.297 144.352 103.484C144.211 102.656 143.977 101.93 143.648 101.305C143.32 100.664 142.875 100.164 142.312 99.8047C141.75 99.4453 141.047 99.2656 140.203 99.2656C139.375 99.2656 138.68 99.4453 138.117 99.8047C137.57 100.164 137.133 100.664 136.805 101.305C136.477 101.93 136.242 102.656 136.102 103.484C135.961 104.297 135.891 105.164 135.891 106.086ZM163.688 111.453L168.375 93.6406H173.32L171.562 102.57L166.922 119H162.961L163.688 111.453ZM161.836 93.6406L164.742 111.312L165.07 119H160.266L154.266 93.6406H161.836ZM177.492 110.938L180.422 93.6406H187.992L182.039 119H177.234L177.492 110.938ZM173.883 93.6406L178.617 111.406L179.344 119H175.336L170.789 102.617L169.102 93.6406H173.883ZM218.297 84.875V119H210.07V84.875H218.297ZM228.562 84.875V91.2266H200.039V84.875H228.562ZM225.773 106.578V106.086C225.773 104.227 226.039 102.516 226.57 100.953C227.102 99.375 227.883 98.0078 228.914 96.8516C229.945 95.6953 231.219 94.7969 232.734 94.1562C234.25 93.5 236 93.1719 237.984 93.1719C239.984 93.1719 241.742 93.5 243.258 94.1562C244.789 94.7969 246.07 95.6953 247.102 96.8516C248.133 98.0078 248.914 99.375 249.445 100.953C249.977 102.516 250.242 104.227 250.242 106.086V106.578C250.242 108.422 249.977 110.133 249.445 111.711C248.914 113.273 248.133 114.641 247.102 115.812C246.07 116.969 244.797 117.867 243.281 118.508C241.766 119.148 240.016 119.469 238.031 119.469C236.047 119.469 234.289 119.148 232.758 118.508C231.227 117.867 229.945 116.969 228.914 115.812C227.883 114.641 227.102 113.273 226.57 111.711C226.039 110.133 225.773 108.422 225.773 106.578ZM233.672 106.086V106.578C233.672 107.531 233.742 108.422 233.883 109.25C234.023 110.078 234.258 110.805 234.586 111.43C234.914 112.039 235.359 112.516 235.922 112.859C236.484 113.203 237.188 113.375 238.031 113.375C238.859 113.375 239.547 113.203 240.094 112.859C240.656 112.516 241.102 112.039 241.43 111.43C241.758 110.805 241.992 110.078 242.133 109.25C242.273 108.422 242.344 107.531 242.344 106.578V106.086C242.344 105.164 242.273 104.297 242.133 103.484C241.992 102.656 241.758 101.93 241.43 101.305C241.102 100.664 240.656 100.164 240.094 99.8047C239.531 99.4453 238.828 99.2656 237.984 99.2656C237.156 99.2656 236.461 99.4453 235.898 99.8047C235.352 100.164 234.914 100.664 234.586 101.305C234.258 101.93 234.023 102.656 233.883 103.484C233.742 104.297 233.672 105.164 233.672 106.086ZM266.086 84.875H279.516C282.141 84.875 284.422 85.2656 286.359 86.0469C288.297 86.8281 289.789 87.9844 290.836 89.5156C291.898 91.0469 292.43 92.9375 292.43 95.1875C292.43 97.1406 292.125 98.7734 291.516 100.086C290.906 101.398 290.055 102.484 288.961 103.344C287.883 104.188 286.625 104.883 285.188 105.43L282.492 106.953H271.219L271.172 100.602H279.516C280.562 100.602 281.43 100.414 282.117 100.039C282.805 99.6641 283.32 99.1328 283.664 98.4453C284.023 97.7422 284.203 96.9062 284.203 95.9375C284.203 94.9531 284.023 94.1094 283.664 93.4062C283.305 92.7031 282.773 92.1641 282.07 91.7891C281.383 91.4141 280.531 91.2266 279.516 91.2266H274.312V119H266.086V84.875ZM284.766 119L277.219 103.906L285.938 103.859L293.578 118.648V119H284.766ZM311.836 112.836V93.6406H319.758V119H312.352L311.836 112.836ZM312.586 107.68L314.648 107.633C314.648 109.336 314.445 110.914 314.039 112.367C313.633 113.805 313.031 115.055 312.234 116.117C311.453 117.18 310.484 118.008 309.328 118.602C308.188 119.18 306.867 119.469 305.367 119.469C304.117 119.469 302.969 119.297 301.922 118.953C300.891 118.594 300 118.039 299.25 117.289C298.5 116.523 297.914 115.547 297.492 114.359C297.086 113.156 296.883 111.719 296.883 110.047V93.6406H304.781V110.094C304.781 110.656 304.852 111.141 304.992 111.547C305.133 111.953 305.336 112.297 305.602 112.578C305.867 112.844 306.195 113.047 306.586 113.188C306.992 113.312 307.453 113.375 307.969 113.375C309.156 113.375 310.086 113.125 310.758 112.625C311.43 112.125 311.898 111.445 312.164 110.586C312.445 109.727 312.586 108.758 312.586 107.68ZM331.875 99.0547V119H323.977V93.6406H331.383L331.875 99.0547ZM330.938 105.453L329.086 105.5C329.086 103.562 329.32 101.836 329.789 100.32C330.258 98.7891 330.922 97.4922 331.781 96.4297C332.641 95.3672 333.664 94.5625 334.852 94.0156C336.055 93.4531 337.391 93.1719 338.859 93.1719C340.031 93.1719 341.102 93.3438 342.07 93.6875C343.055 94.0312 343.898 94.5859 344.602 95.3516C345.32 96.1172 345.867 97.1328 346.242 98.3984C346.633 99.6484 346.828 101.195 346.828 103.039V119H338.883V103.016C338.883 102 338.742 101.227 338.461 100.695C338.18 100.148 337.773 99.7734 337.242 99.5703C336.711 99.3672 336.062 99.2656 335.297 99.2656C334.484 99.2656 333.797 99.4219 333.234 99.7344C332.672 100.047 332.219 100.484 331.875 101.047C331.547 101.594 331.305 102.242 331.148 102.992C331.008 103.742 330.938 104.562 330.938 105.453ZM363.773 108.195H357.047C357.047 106.82 357.141 105.609 357.328 104.562C357.531 103.5 357.875 102.547 358.359 101.703C358.844 100.859 359.5 100.078 360.328 99.3594C361.062 98.75 361.695 98.1641 362.227 97.6016C362.758 97.0391 363.164 96.4688 363.445 95.8906C363.727 95.3125 363.867 94.6953 363.867 94.0391C363.867 93.2266 363.75 92.5625 363.516 92.0469C363.297 91.5312 362.961 91.1484 362.508 90.8984C362.07 90.6328 361.516 90.5 360.844 90.5C360.297 90.5 359.781 90.6328 359.297 90.8984C358.828 91.1641 358.445 91.5781 358.148 92.1406C357.852 92.6875 357.688 93.4141 357.656 94.3203H349.711C349.758 91.9922 350.273 90.1016 351.258 88.6484C352.258 87.1797 353.586 86.1094 355.242 85.4375C356.914 84.75 358.781 84.4062 360.844 84.4062C363.125 84.4062 365.086 84.7578 366.727 85.4609C368.367 86.1641 369.625 87.2109 370.5 88.6016C371.375 89.9766 371.812 91.6719 371.812 93.6875C371.812 95.0312 371.555 96.2031 371.039 97.2031C370.539 98.1875 369.859 99.1094 369 99.9688C368.156 100.812 367.211 101.719 366.164 102.688C365.258 103.484 364.641 104.297 364.312 105.125C363.984 105.938 363.805 106.961 363.773 108.195ZM356.086 115.32C356.086 114.195 356.492 113.258 357.305 112.508C358.117 111.742 359.172 111.359 360.469 111.359C361.766 111.359 362.82 111.742 363.633 112.508C364.445 113.258 364.852 114.195 364.852 115.32C364.852 116.445 364.445 117.391 363.633 118.156C362.82 118.906 361.766 119.281 360.469 119.281C359.172 119.281 358.117 118.906 357.305 118.156C356.492 117.391 356.086 116.445 356.086 115.32Z" fill="black"/>
<path d="M1134 0H1348C1356.28 0 1363 6.71573 1363 15V148C1363 156.284 1356.28 163 1348 163H1134V0Z" fill="#0A3161"/>
<path d="M1260.62 78.8078C1263.81 78.8078 1266.93 79.7552 1269.59 81.5302C1272.25 83.3052 1274.32 85.8281 1275.54 88.7798C1276.76 91.7315 1277.08 94.9795 1276.46 98.1131C1275.84 101.247 1274.3 104.125 1272.04 106.384C1269.78 108.643 1266.9 110.182 1263.77 110.805C1260.63 111.428 1257.39 111.108 1254.43 109.886C1251.48 108.663 1248.96 106.593 1247.18 103.936C1245.41 101.28 1244.46 98.1565 1244.46 94.9616C1244.46 90.6774 1246.16 86.5686 1249.19 83.5392C1252.22 80.5097 1256.33 78.8078 1260.62 78.8078ZM1260.62 73.4232C1256.36 73.4232 1252.19 74.6864 1248.65 77.0531C1245.11 79.4198 1242.35 82.7836 1240.72 86.7192C1239.09 90.6549 1238.66 94.9855 1239.49 99.1636C1240.32 103.342 1242.37 107.179 1245.39 110.192C1248.4 113.204 1252.24 115.255 1256.41 116.086C1260.59 116.917 1264.92 116.491 1268.86 114.861C1272.79 113.23 1276.16 110.47 1278.52 106.928C1280.89 103.386 1282.15 99.2215 1282.15 94.9616C1282.15 89.2493 1279.88 83.7709 1275.85 79.7317C1271.81 75.6924 1266.33 73.4232 1260.62 73.4232Z" fill="white"/>
<path d="M1274.08 46.4999H1220.23C1218.8 46.4999 1217.43 47.0672 1216.42 48.0771C1215.41 49.0869 1214.85 50.4565 1214.85 51.8845V105.731C1214.85 107.159 1215.41 108.528 1216.42 109.538C1217.43 110.548 1218.8 111.115 1220.23 111.115H1231V105.731H1220.23V68.0383H1279.46V51.8845C1279.46 50.4565 1278.89 49.0869 1277.88 48.0771C1276.87 47.0672 1275.5 46.4999 1274.08 46.4999ZM1220.23 62.6537V51.8845H1274.08V62.6537H1220.23Z" fill="white"/>
<path d="M1255.23 86.8848V103.039L1268.69 94.9617L1255.23 86.8848Z" fill="white"/>
</svg>
