<svg width="1363" height="163" viewBox="0 0 1363 163" fill="none" xmlns="http://www.w3.org/2000/svg">
<path d="M0 15C0 6.71573 6.71573 0 15 0H37V163H15C6.71573 163 0 156.284 0 148V15Z" fill="#0A3161"/>
<rect width="1097" height="163" transform="translate(37)" fill="#F0F0F0"/>
<path d="M101.906 53.9219L94.3945 51.2383V48.0859L104.602 52.375V54.6367L101.906 53.9219ZM94.3945 56.1719L101.918 53.4297L104.602 52.7852V55.0352L94.3945 59.3242V56.1719ZM122.32 43.9375H125.824V55.2109C125.824 56.5234 125.543 57.6289 124.98 58.5273C124.426 59.4258 123.656 60.1016 122.672 60.5547C121.695 61.0078 120.57 61.2344 119.297 61.2344C118.023 61.2344 116.891 61.0078 115.898 60.5547C114.914 60.1016 114.141 59.4258 113.578 58.5273C113.023 57.6289 112.746 56.5234 112.746 55.2109V43.9375H116.262V55.2109C116.262 55.9766 116.383 56.6016 116.625 57.0859C116.867 57.5703 117.215 57.9258 117.668 58.1523C118.129 58.3789 118.672 58.4922 119.297 58.4922C119.938 58.4922 120.48 58.3789 120.926 58.1523C121.379 57.9258 121.723 57.5703 121.957 57.0859C122.199 56.6016 122.32 55.9766 122.32 55.2109V43.9375ZM128.672 59.3711C128.672 58.8711 128.844 58.4531 129.188 58.1172C129.539 57.7812 130.004 57.6133 130.582 57.6133C131.16 57.6133 131.621 57.7812 131.965 58.1172C132.316 58.4531 132.492 58.8711 132.492 59.3711C132.492 59.8711 132.316 60.2891 131.965 60.625C131.621 60.9609 131.16 61.1289 130.582 61.1289C130.004 61.1289 129.539 60.9609 129.188 60.625C128.844 60.2891 128.672 59.8711 128.672 59.3711ZM144.562 56.5352C144.562 56.2305 144.516 55.957 144.422 55.7148C144.336 55.4648 144.172 55.2383 143.93 55.0352C143.688 54.8242 143.348 54.6172 142.91 54.4141C142.473 54.2109 141.906 54 141.211 53.7812C140.438 53.5312 139.703 53.25 139.008 52.9375C138.32 52.625 137.711 52.2617 137.18 51.8477C136.656 51.4258 136.242 50.9375 135.938 50.3828C135.641 49.8281 135.492 49.1836 135.492 48.4492C135.492 47.7383 135.648 47.0938 135.961 46.5156C136.273 45.9297 136.711 45.4297 137.273 45.0156C137.836 44.5938 138.5 44.2695 139.266 44.043C140.039 43.8164 140.887 43.7031 141.809 43.7031C143.066 43.7031 144.164 43.9297 145.102 44.3828C146.039 44.8359 146.766 45.457 147.281 46.2461C147.805 47.0352 148.066 47.9375 148.066 48.9531H144.574C144.574 48.4531 144.469 48.0156 144.258 47.6406C144.055 47.2578 143.742 46.957 143.32 46.7383C142.906 46.5195 142.383 46.4102 141.75 46.4102C141.141 46.4102 140.633 46.5039 140.227 46.6914C139.82 46.8711 139.516 47.1172 139.312 47.4297C139.109 47.7344 139.008 48.0781 139.008 48.4609C139.008 48.75 139.078 49.0117 139.219 49.2461C139.367 49.4805 139.586 49.6992 139.875 49.9023C140.164 50.1055 140.52 50.2969 140.941 50.4766C141.363 50.6562 141.852 50.832 142.406 51.0039C143.336 51.2852 144.152 51.6016 144.855 51.9531C145.566 52.3047 146.16 52.6992 146.637 53.1367C147.113 53.5742 147.473 54.0703 147.715 54.625C147.957 55.1797 148.078 55.8086 148.078 56.5117C148.078 57.2539 147.934 57.918 147.645 58.5039C147.355 59.0898 146.938 59.5859 146.391 59.9922C145.844 60.3984 145.191 60.707 144.434 60.918C143.676 61.1289 142.828 61.2344 141.891 61.2344C141.047 61.2344 140.215 61.125 139.395 60.9062C138.574 60.6797 137.828 60.3398 137.156 59.8867C136.492 59.4336 135.961 58.8555 135.562 58.1523C135.164 57.4492 134.965 56.6172 134.965 55.6562H138.492C138.492 56.1875 138.574 56.6367 138.738 57.0039C138.902 57.3711 139.133 57.668 139.43 57.8945C139.734 58.1211 140.094 58.2852 140.508 58.3867C140.93 58.4883 141.391 58.5391 141.891 58.5391C142.5 58.5391 143 58.4531 143.391 58.2812C143.789 58.1094 144.082 57.8711 144.27 57.5664C144.465 57.2617 144.562 56.918 144.562 56.5352ZM150.422 59.3711C150.422 58.8711 150.594 58.4531 150.938 58.1172C151.289 57.7812 151.754 57.6133 152.332 57.6133C152.91 57.6133 153.371 57.7812 153.715 58.1172C154.066 58.4531 154.242 58.8711 154.242 59.3711C154.242 59.8711 154.066 60.2891 153.715 60.625C153.371 60.9609 152.91 61.1289 152.332 61.1289C151.754 61.1289 151.289 60.9609 150.938 60.625C150.594 60.2891 150.422 59.8711 150.422 59.3711ZM164.367 46.8555L159.727 61H155.988L162.328 43.9375H164.707L164.367 46.8555ZM168.223 61L163.57 46.8555L163.195 43.9375H165.598L171.973 61H168.223ZM168.012 54.6484V57.4023H159V54.6484H168.012ZM179.531 43.9375H185.895C187.199 43.9375 188.32 44.1328 189.258 44.5234C190.203 44.9141 190.93 45.4922 191.438 46.2578C191.945 47.0234 192.199 47.9648 192.199 49.082C192.199 49.9961 192.043 50.7812 191.73 51.4375C191.426 52.0859 190.992 52.6289 190.43 53.0664C189.875 53.4961 189.223 53.8398 188.473 54.0977L187.359 54.6836H181.828L181.805 51.9414H185.918C186.535 51.9414 187.047 51.832 187.453 51.6133C187.859 51.3945 188.164 51.0898 188.367 50.6992C188.578 50.3086 188.684 49.8555 188.684 49.3398C188.684 48.793 188.582 48.3203 188.379 47.9219C188.176 47.5234 187.867 47.2188 187.453 47.0078C187.039 46.7969 186.52 46.6914 185.895 46.6914H183.047V61H179.531V43.9375ZM189.07 61L185.18 53.3945L188.895 53.3711L192.832 60.8359V61H189.07ZM200.531 61.2344C199.547 61.2344 198.664 61.0781 197.883 60.7656C197.102 60.4453 196.438 60.0039 195.891 59.4414C195.352 58.8789 194.938 58.2266 194.648 57.4844C194.359 56.7344 194.215 55.9375 194.215 55.0938V54.625C194.215 53.6641 194.352 52.7852 194.625 51.9883C194.898 51.1914 195.289 50.5 195.797 49.9141C196.312 49.3281 196.938 48.8789 197.672 48.5664C198.406 48.2461 199.234 48.0859 200.156 48.0859C201.055 48.0859 201.852 48.2344 202.547 48.5312C203.242 48.8281 203.824 49.25 204.293 49.7969C204.77 50.3438 205.129 51 205.371 51.7656C205.613 52.5234 205.734 53.3672 205.734 54.2969V55.7031H195.656V53.4531H202.418V53.1953C202.418 52.7266 202.332 52.3086 202.16 51.9414C201.996 51.5664 201.746 51.2695 201.41 51.0508C201.074 50.832 200.645 50.7227 200.121 50.7227C199.676 50.7227 199.293 50.8203 198.973 51.0156C198.652 51.2109 198.391 51.4844 198.188 51.8359C197.992 52.1875 197.844 52.6016 197.742 53.0781C197.648 53.5469 197.602 54.0625 197.602 54.625V55.0938C197.602 55.6016 197.672 56.0703 197.812 56.5C197.961 56.9297 198.168 57.3008 198.434 57.6133C198.707 57.9258 199.035 58.168 199.418 58.3398C199.809 58.5117 200.25 58.5977 200.742 58.5977C201.352 58.5977 201.918 58.4805 202.441 58.2461C202.973 58.0039 203.43 57.6406 203.812 57.1562L205.453 58.9375C205.188 59.3203 204.824 59.6875 204.363 60.0391C203.91 60.3906 203.363 60.6797 202.723 60.9062C202.082 61.125 201.352 61.2344 200.531 61.2344ZM212.895 58.5977C213.309 58.5977 213.676 58.5195 213.996 58.3633C214.316 58.1992 214.566 57.9727 214.746 57.6836C214.934 57.3867 215.031 57.0391 215.039 56.6406H218.215C218.207 57.5312 217.969 58.3242 217.5 59.0195C217.031 59.707 216.402 60.25 215.613 60.6484C214.824 61.0391 213.941 61.2344 212.965 61.2344C211.98 61.2344 211.121 61.0703 210.387 60.7422C209.66 60.4141 209.055 59.9609 208.57 59.3828C208.086 58.7969 207.723 58.1172 207.48 57.3438C207.238 56.5625 207.117 55.7266 207.117 54.8359V54.4961C207.117 53.5977 207.238 52.7617 207.48 51.9883C207.723 51.207 208.086 50.5273 208.57 49.9492C209.055 49.3633 209.66 48.9062 210.387 48.5781C211.113 48.25 211.965 48.0859 212.941 48.0859C213.98 48.0859 214.891 48.2852 215.672 48.6836C216.461 49.082 217.078 49.6523 217.523 50.3945C217.977 51.1289 218.207 52 218.215 53.0078H215.039C215.031 52.5859 214.941 52.2031 214.77 51.8594C214.605 51.5156 214.363 51.2422 214.043 51.0391C213.73 50.8281 213.344 50.7227 212.883 50.7227C212.391 50.7227 211.988 50.8281 211.676 51.0391C211.363 51.2422 211.121 51.5234 210.949 51.8828C210.777 52.2344 210.656 52.6367 210.586 53.0898C210.523 53.5352 210.492 54.0039 210.492 54.4961V54.8359C210.492 55.3281 210.523 55.8008 210.586 56.2539C210.648 56.707 210.766 57.1094 210.938 57.4609C211.117 57.8125 211.363 58.0898 211.676 58.293C211.988 58.4961 212.395 58.5977 212.895 58.5977ZM226.008 61.2344C225.023 61.2344 224.141 61.0781 223.359 60.7656C222.578 60.4453 221.914 60.0039 221.367 59.4414C220.828 58.8789 220.414 58.2266 220.125 57.4844C219.836 56.7344 219.691 55.9375 219.691 55.0938V54.625C219.691 53.6641 219.828 52.7852 220.102 51.9883C220.375 51.1914 220.766 50.5 221.273 49.9141C221.789 49.3281 222.414 48.8789 223.148 48.5664C223.883 48.2461 224.711 48.0859 225.633 48.0859C226.531 48.0859 227.328 48.2344 228.023 48.5312C228.719 48.8281 229.301 49.25 229.77 49.7969C230.246 50.3438 230.605 51 230.848 51.7656C231.09 52.5234 231.211 53.3672 231.211 54.2969V55.7031H221.133V53.4531H227.895V53.1953C227.895 52.7266 227.809 52.3086 227.637 51.9414C227.473 51.5664 227.223 51.2695 226.887 51.0508C226.551 50.832 226.121 50.7227 225.598 50.7227C225.152 50.7227 224.77 50.8203 224.449 51.0156C224.129 51.2109 223.867 51.4844 223.664 51.8359C223.469 52.1875 223.32 52.6016 223.219 53.0781C223.125 53.5469 223.078 54.0625 223.078 54.625V55.0938C223.078 55.6016 223.148 56.0703 223.289 56.5C223.438 56.9297 223.645 57.3008 223.91 57.6133C224.184 57.9258 224.512 58.168 224.895 58.3398C225.285 58.5117 225.727 58.5977 226.219 58.5977C226.828 58.5977 227.395 58.4805 227.918 58.2461C228.449 58.0039 228.906 57.6406 229.289 57.1562L230.93 58.9375C230.664 59.3203 230.301 59.6875 229.84 60.0391C229.387 60.3906 228.84 60.6797 228.199 60.9062C227.559 61.125 226.828 61.2344 226.008 61.2344ZM239.988 57.4961C239.988 57.2539 239.918 57.0352 239.777 56.8398C239.637 56.6445 239.375 56.4648 238.992 56.3008C238.617 56.1289 238.074 55.9727 237.363 55.832C236.723 55.6914 236.125 55.5156 235.57 55.3047C235.023 55.0859 234.547 54.8242 234.141 54.5195C233.742 54.2148 233.43 53.8555 233.203 53.4414C232.977 53.0195 232.863 52.5391 232.863 52C232.863 51.4688 232.977 50.9688 233.203 50.5C233.438 50.0312 233.77 49.6172 234.199 49.2578C234.637 48.8906 235.168 48.6055 235.793 48.4023C236.426 48.1914 237.137 48.0859 237.926 48.0859C239.027 48.0859 239.973 48.2617 240.762 48.6133C241.559 48.9648 242.168 49.4492 242.59 50.0664C243.02 50.6758 243.234 51.3711 243.234 52.1523H239.859C239.859 51.8242 239.789 51.5312 239.648 51.2734C239.516 51.0078 239.305 50.8008 239.016 50.6523C238.734 50.4961 238.367 50.418 237.914 50.418C237.539 50.418 237.215 50.4844 236.941 50.6172C236.668 50.7422 236.457 50.9141 236.309 51.1328C236.168 51.3438 236.098 51.5781 236.098 51.8359C236.098 52.0312 236.137 52.207 236.215 52.3633C236.301 52.5117 236.438 52.6484 236.625 52.7734C236.812 52.8984 237.055 53.0156 237.352 53.125C237.656 53.2266 238.031 53.3203 238.477 53.4062C239.391 53.5938 240.207 53.8398 240.926 54.1445C241.645 54.4414 242.215 54.8477 242.637 55.3633C243.059 55.8711 243.27 56.5391 243.27 57.3672C243.27 57.9297 243.145 58.4453 242.895 58.9141C242.645 59.3828 242.285 59.793 241.816 60.1445C241.348 60.4883 240.785 60.7578 240.129 60.9531C239.48 61.1406 238.75 61.2344 237.938 61.2344C236.758 61.2344 235.758 61.0234 234.938 60.6016C234.125 60.1797 233.508 59.6445 233.086 58.9961C232.672 58.3398 232.465 57.668 232.465 56.9805H235.664C235.68 57.4414 235.797 57.8125 236.016 58.0938C236.242 58.375 236.527 58.5781 236.871 58.7031C237.223 58.8281 237.602 58.8906 238.008 58.8906C238.445 58.8906 238.809 58.832 239.098 58.7148C239.387 58.5898 239.605 58.4258 239.754 58.2227C239.91 58.0117 239.988 57.7695 239.988 57.4961ZM252.316 57.4961C252.316 57.2539 252.246 57.0352 252.105 56.8398C251.965 56.6445 251.703 56.4648 251.32 56.3008C250.945 56.1289 250.402 55.9727 249.691 55.832C249.051 55.6914 248.453 55.5156 247.898 55.3047C247.352 55.0859 246.875 54.8242 246.469 54.5195C246.07 54.2148 245.758 53.8555 245.531 53.4414C245.305 53.0195 245.191 52.5391 245.191 52C245.191 51.4688 245.305 50.9688 245.531 50.5C245.766 50.0312 246.098 49.6172 246.527 49.2578C246.965 48.8906 247.496 48.6055 248.121 48.4023C248.754 48.1914 249.465 48.0859 250.254 48.0859C251.355 48.0859 252.301 48.2617 253.09 48.6133C253.887 48.9648 254.496 49.4492 254.918 50.0664C255.348 50.6758 255.562 51.3711 255.562 52.1523H252.188C252.188 51.8242 252.117 51.5312 251.977 51.2734C251.844 51.0078 251.633 50.8008 251.344 50.6523C251.062 50.4961 250.695 50.418 250.242 50.418C249.867 50.418 249.543 50.4844 249.27 50.6172C248.996 50.7422 248.785 50.9141 248.637 51.1328C248.496 51.3438 248.426 51.5781 248.426 51.8359C248.426 52.0312 248.465 52.207 248.543 52.3633C248.629 52.5117 248.766 52.6484 248.953 52.7734C249.141 52.8984 249.383 53.0156 249.68 53.125C249.984 53.2266 250.359 53.3203 250.805 53.4062C251.719 53.5938 252.535 53.8398 253.254 54.1445C253.973 54.4414 254.543 54.8477 254.965 55.3633C255.387 55.8711 255.598 56.5391 255.598 57.3672C255.598 57.9297 255.473 58.4453 255.223 58.9141C254.973 59.3828 254.613 59.793 254.145 60.1445C253.676 60.4883 253.113 60.7578 252.457 60.9531C251.809 61.1406 251.078 61.2344 250.266 61.2344C249.086 61.2344 248.086 61.0234 247.266 60.6016C246.453 60.1797 245.836 59.6445 245.414 58.9961C245 58.3398 244.793 57.668 244.793 56.9805H247.992C248.008 57.4414 248.125 57.8125 248.344 58.0938C248.57 58.375 248.855 58.5781 249.199 58.7031C249.551 58.8281 249.93 58.8906 250.336 58.8906C250.773 58.8906 251.137 58.832 251.426 58.7148C251.715 58.5898 251.934 58.4258 252.082 58.2227C252.238 58.0117 252.316 57.7695 252.316 57.4961ZM261.352 48.3203V61H257.965V48.3203H261.352ZM257.754 45.0156C257.754 44.5234 257.926 44.1172 258.27 43.7969C258.613 43.4766 259.074 43.3164 259.652 43.3164C260.223 43.3164 260.68 43.4766 261.023 43.7969C261.375 44.1172 261.551 44.5234 261.551 45.0156C261.551 45.5078 261.375 45.9141 261.023 46.2344C260.68 46.5547 260.223 46.7148 259.652 46.7148C259.074 46.7148 258.613 46.5547 258.27 46.2344C257.926 45.9141 257.754 45.5078 257.754 45.0156ZM263.602 54.7891V54.543C263.602 53.6133 263.734 52.7578 264 51.9766C264.266 51.1875 264.652 50.5039 265.16 49.9258C265.668 49.3477 266.293 48.8984 267.035 48.5781C267.777 48.25 268.629 48.0859 269.59 48.0859C270.551 48.0859 271.406 48.25 272.156 48.5781C272.906 48.8984 273.535 49.3477 274.043 49.9258C274.559 50.5039 274.949 51.1875 275.215 51.9766C275.48 52.7578 275.613 53.6133 275.613 54.543V54.7891C275.613 55.7109 275.48 56.5664 275.215 57.3555C274.949 58.1367 274.559 58.8203 274.043 59.4062C273.535 59.9844 272.91 60.4336 272.168 60.7539C271.426 61.0742 270.574 61.2344 269.613 61.2344C268.652 61.2344 267.797 61.0742 267.047 60.7539C266.305 60.4336 265.676 59.9844 265.16 59.4062C264.652 58.8203 264.266 58.1367 264 57.3555C263.734 56.5664 263.602 55.7109 263.602 54.7891ZM266.977 54.543V54.7891C266.977 55.3203 267.023 55.8164 267.117 56.2773C267.211 56.7383 267.359 57.1445 267.562 57.4961C267.773 57.8398 268.047 58.1094 268.383 58.3047C268.719 58.5 269.129 58.5977 269.613 58.5977C270.082 58.5977 270.484 58.5 270.82 58.3047C271.156 58.1094 271.426 57.8398 271.629 57.4961C271.832 57.1445 271.98 56.7383 272.074 56.2773C272.176 55.8164 272.227 55.3203 272.227 54.7891V54.543C272.227 54.0273 272.176 53.543 272.074 53.0898C271.98 52.6289 271.828 52.2227 271.617 51.8711C271.414 51.5117 271.145 51.2305 270.809 51.0273C270.473 50.8242 270.066 50.7227 269.59 50.7227C269.113 50.7227 268.707 50.8242 268.371 51.0273C268.043 51.2305 267.773 51.5117 267.562 51.8711C267.359 52.2227 267.211 52.6289 267.117 53.0898C267.023 53.543 266.977 54.0273 266.977 54.543ZM280.992 51.0273V61H277.617V48.3203H280.781L280.992 51.0273ZM280.5 54.2148H279.586C279.586 53.2773 279.707 52.4336 279.949 51.6836C280.191 50.9258 280.531 50.2812 280.969 49.75C281.406 49.2109 281.926 48.8008 282.527 48.5195C283.137 48.2305 283.816 48.0859 284.566 48.0859C285.16 48.0859 285.703 48.1719 286.195 48.3438C286.688 48.5156 287.109 48.7891 287.461 49.1641C287.82 49.5391 288.094 50.0352 288.281 50.6523C288.477 51.2695 288.574 52.0234 288.574 52.9141V61H285.176V52.9023C285.176 52.3398 285.098 51.9023 284.941 51.5898C284.785 51.2773 284.555 51.0586 284.25 50.9336C283.953 50.8008 283.586 50.7344 283.148 50.7344C282.695 50.7344 282.301 50.8242 281.965 51.0039C281.637 51.1836 281.363 51.4336 281.145 51.7539C280.934 52.0664 280.773 52.4336 280.664 52.8555C280.555 53.2773 280.5 53.7305 280.5 54.2148ZM304.266 46.8555L299.625 61H295.887L302.227 43.9375H304.605L304.266 46.8555ZM308.121 61L303.469 46.8555L303.094 43.9375H305.496L311.871 61H308.121ZM307.91 54.6484V57.4023H298.898V54.6484H307.91ZM316.172 51.0273V61H312.797V48.3203H315.961L316.172 51.0273ZM315.68 54.2148H314.766C314.766 53.2773 314.887 52.4336 315.129 51.6836C315.371 50.9258 315.711 50.2812 316.148 49.75C316.586 49.2109 317.105 48.8008 317.707 48.5195C318.316 48.2305 318.996 48.0859 319.746 48.0859C320.34 48.0859 320.883 48.1719 321.375 48.3438C321.867 48.5156 322.289 48.7891 322.641 49.1641C323 49.5391 323.273 50.0352 323.461 50.6523C323.656 51.2695 323.754 52.0234 323.754 52.9141V61H320.355V52.9023C320.355 52.3398 320.277 51.9023 320.121 51.5898C319.965 51.2773 319.734 51.0586 319.43 50.9336C319.133 50.8008 318.766 50.7344 318.328 50.7344C317.875 50.7344 317.48 50.8242 317.145 51.0039C316.816 51.1836 316.543 51.4336 316.324 51.7539C316.113 52.0664 315.953 52.4336 315.844 52.8555C315.734 53.2773 315.68 53.7305 315.68 54.2148ZM333.164 58.1406V52.4922C333.164 52.0859 333.098 51.7383 332.965 51.4492C332.832 51.1523 332.625 50.9219 332.344 50.7578C332.07 50.5938 331.715 50.5117 331.277 50.5117C330.902 50.5117 330.578 50.5781 330.305 50.7109C330.031 50.8359 329.82 51.0195 329.672 51.2617C329.523 51.4961 329.449 51.7734 329.449 52.0938H326.074C326.074 51.5547 326.199 51.043 326.449 50.5586C326.699 50.0742 327.062 49.6484 327.539 49.2812C328.016 48.9062 328.582 48.6133 329.238 48.4023C329.902 48.1914 330.645 48.0859 331.465 48.0859C332.449 48.0859 333.324 48.25 334.09 48.5781C334.855 48.9062 335.457 49.3984 335.895 50.0547C336.34 50.7109 336.562 51.5312 336.562 52.5156V57.9414C336.562 58.6367 336.605 59.207 336.691 59.6523C336.777 60.0898 336.902 60.4727 337.066 60.8008V61H333.656C333.492 60.6562 333.367 60.2266 333.281 59.7109C333.203 59.1875 333.164 58.6641 333.164 58.1406ZM333.609 53.2773L333.633 55.1875H331.746C331.301 55.1875 330.914 55.2383 330.586 55.3398C330.258 55.4414 329.988 55.5859 329.777 55.7734C329.566 55.9531 329.41 56.1641 329.309 56.4062C329.215 56.6484 329.168 56.9141 329.168 57.2031C329.168 57.4922 329.234 57.7539 329.367 57.9883C329.5 58.2148 329.691 58.3945 329.941 58.5273C330.191 58.6523 330.484 58.7148 330.82 58.7148C331.328 58.7148 331.77 58.6133 332.145 58.4102C332.52 58.207 332.809 57.957 333.012 57.6602C333.223 57.3633 333.332 57.082 333.34 56.8164L334.23 58.2461C334.105 58.5664 333.934 58.8984 333.715 59.2422C333.504 59.5859 333.234 59.9102 332.906 60.2148C332.578 60.5117 332.184 60.7578 331.723 60.9531C331.262 61.1406 330.715 61.2344 330.082 61.2344C329.277 61.2344 328.547 61.0742 327.891 60.7539C327.242 60.4258 326.727 59.9766 326.344 59.4062C325.969 58.8281 325.781 58.1719 325.781 57.4375C325.781 56.7734 325.906 56.1836 326.156 55.668C326.406 55.1523 326.773 54.7188 327.258 54.3672C327.75 54.0078 328.363 53.7383 329.098 53.5586C329.832 53.3711 330.684 53.2773 331.652 53.2773H333.609ZM342.727 43V61H339.34V43H342.727ZM349.277 59.5703L352.641 48.3203H356.262L351.164 62.9102C351.055 63.2305 350.906 63.5742 350.719 63.9414C350.539 64.3086 350.293 64.6562 349.98 64.9844C349.676 65.3203 349.289 65.5938 348.82 65.8047C348.359 66.0156 347.793 66.1211 347.121 66.1211C346.801 66.1211 346.539 66.1016 346.336 66.0625C346.133 66.0234 345.891 65.9688 345.609 65.8984V63.4258C345.695 63.4258 345.785 63.4258 345.879 63.4258C345.973 63.4336 346.062 63.4375 346.148 63.4375C346.594 63.4375 346.957 63.3867 347.238 63.2852C347.52 63.1836 347.746 63.0273 347.918 62.8164C348.09 62.6133 348.227 62.3477 348.328 62.0195L349.277 59.5703ZM347.871 48.3203L350.625 57.5078L351.105 61.082L348.809 61.3281L344.25 48.3203H347.871ZM364.465 57.4961C364.465 57.2539 364.395 57.0352 364.254 56.8398C364.113 56.6445 363.852 56.4648 363.469 56.3008C363.094 56.1289 362.551 55.9727 361.84 55.832C361.199 55.6914 360.602 55.5156 360.047 55.3047C359.5 55.0859 359.023 54.8242 358.617 54.5195C358.219 54.2148 357.906 53.8555 357.68 53.4414C357.453 53.0195 357.34 52.5391 357.34 52C357.34 51.4688 357.453 50.9688 357.68 50.5C357.914 50.0312 358.246 49.6172 358.676 49.2578C359.113 48.8906 359.645 48.6055 360.27 48.4023C360.902 48.1914 361.613 48.0859 362.402 48.0859C363.504 48.0859 364.449 48.2617 365.238 48.6133C366.035 48.9648 366.645 49.4492 367.066 50.0664C367.496 50.6758 367.711 51.3711 367.711 52.1523H364.336C364.336 51.8242 364.266 51.5312 364.125 51.2734C363.992 51.0078 363.781 50.8008 363.492 50.6523C363.211 50.4961 362.844 50.418 362.391 50.418C362.016 50.418 361.691 50.4844 361.418 50.6172C361.145 50.7422 360.934 50.9141 360.785 51.1328C360.645 51.3438 360.574 51.5781 360.574 51.8359C360.574 52.0312 360.613 52.207 360.691 52.3633C360.777 52.5117 360.914 52.6484 361.102 52.7734C361.289 52.8984 361.531 53.0156 361.828 53.125C362.133 53.2266 362.508 53.3203 362.953 53.4062C363.867 53.5938 364.684 53.8398 365.402 54.1445C366.121 54.4414 366.691 54.8477 367.113 55.3633C367.535 55.8711 367.746 56.5391 367.746 57.3672C367.746 57.9297 367.621 58.4453 367.371 58.9141C367.121 59.3828 366.762 59.793 366.293 60.1445C365.824 60.4883 365.262 60.7578 364.605 60.9531C363.957 61.1406 363.227 61.2344 362.414 61.2344C361.234 61.2344 360.234 61.0234 359.414 60.6016C358.602 60.1797 357.984 59.6445 357.562 58.9961C357.148 58.3398 356.941 57.668 356.941 56.9805H360.141C360.156 57.4414 360.273 57.8125 360.492 58.0938C360.719 58.375 361.004 58.5781 361.348 58.7031C361.699 58.8281 362.078 58.8906 362.484 58.8906C362.922 58.8906 363.285 58.832 363.574 58.7148C363.863 58.5898 364.082 58.4258 364.23 58.2227C364.387 58.0117 364.465 57.7695 364.465 57.4961ZM373.5 48.3203V61H370.113V48.3203H373.5ZM369.902 45.0156C369.902 44.5234 370.074 44.1172 370.418 43.7969C370.762 43.4766 371.223 43.3164 371.801 43.3164C372.371 43.3164 372.828 43.4766 373.172 43.7969C373.523 44.1172 373.699 44.5234 373.699 45.0156C373.699 45.5078 373.523 45.9141 373.172 46.2344C372.828 46.5547 372.371 46.7148 371.801 46.7148C371.223 46.7148 370.762 46.5547 370.418 46.2344C370.074 45.9141 369.902 45.5078 369.902 45.0156ZM383.145 57.4961C383.145 57.2539 383.074 57.0352 382.934 56.8398C382.793 56.6445 382.531 56.4648 382.148 56.3008C381.773 56.1289 381.23 55.9727 380.52 55.832C379.879 55.6914 379.281 55.5156 378.727 55.3047C378.18 55.0859 377.703 54.8242 377.297 54.5195C376.898 54.2148 376.586 53.8555 376.359 53.4414C376.133 53.0195 376.02 52.5391 376.02 52C376.02 51.4688 376.133 50.9688 376.359 50.5C376.594 50.0312 376.926 49.6172 377.355 49.2578C377.793 48.8906 378.324 48.6055 378.949 48.4023C379.582 48.1914 380.293 48.0859 381.082 48.0859C382.184 48.0859 383.129 48.2617 383.918 48.6133C384.715 48.9648 385.324 49.4492 385.746 50.0664C386.176 50.6758 386.391 51.3711 386.391 52.1523H383.016C383.016 51.8242 382.945 51.5312 382.805 51.2734C382.672 51.0078 382.461 50.8008 382.172 50.6523C381.891 50.4961 381.523 50.418 381.07 50.418C380.695 50.418 380.371 50.4844 380.098 50.6172C379.824 50.7422 379.613 50.9141 379.465 51.1328C379.324 51.3438 379.254 51.5781 379.254 51.8359C379.254 52.0312 379.293 52.207 379.371 52.3633C379.457 52.5117 379.594 52.6484 379.781 52.7734C379.969 52.8984 380.211 53.0156 380.508 53.125C380.812 53.2266 381.188 53.3203 381.633 53.4062C382.547 53.5938 383.363 53.8398 384.082 54.1445C384.801 54.4414 385.371 54.8477 385.793 55.3633C386.215 55.8711 386.426 56.5391 386.426 57.3672C386.426 57.9297 386.301 58.4453 386.051 58.9141C385.801 59.3828 385.441 59.793 384.973 60.1445C384.504 60.4883 383.941 60.7578 383.285 60.9531C382.637 61.1406 381.906 61.2344 381.094 61.2344C379.914 61.2344 378.914 61.0234 378.094 60.6016C377.281 60.1797 376.664 59.6445 376.242 58.9961C375.828 58.3398 375.621 57.668 375.621 56.9805H378.82C378.836 57.4414 378.953 57.8125 379.172 58.0938C379.398 58.375 379.684 58.5781 380.027 58.7031C380.379 58.8281 380.758 58.8906 381.164 58.8906C381.602 58.8906 381.965 58.832 382.254 58.7148C382.543 58.5898 382.762 58.4258 382.91 58.2227C383.066 58.0117 383.145 57.7695 383.145 57.4961Z" fill="#888888"/>
<path d="M109.219 107.422H100.734V101.07H109.219C110.375 101.07 111.312 100.875 112.031 100.484C112.75 100.094 113.273 99.5547 113.602 98.8672C113.945 98.1641 114.117 97.375 114.117 96.5C114.117 95.5625 113.945 94.6953 113.602 93.8984C113.273 93.1016 112.75 92.4609 112.031 91.9766C111.312 91.4766 110.375 91.2266 109.219 91.2266H103.828V119H95.6016V84.875H109.219C111.953 84.875 114.305 85.375 116.273 86.375C118.258 87.375 119.781 88.75 120.844 90.5C121.906 92.2344 122.438 94.2188 122.438 96.4531C122.438 98.6562 121.906 100.578 120.844 102.219C119.781 103.859 118.258 105.141 116.273 106.062C114.305 106.969 111.953 107.422 109.219 107.422ZM134.461 99.9219V119H126.562V93.6406H133.945L134.461 99.9219ZM141.961 93.4531L141.82 100.789C141.508 100.758 141.086 100.719 140.555 100.672C140.023 100.625 139.578 100.602 139.219 100.602C138.297 100.602 137.5 100.711 136.828 100.93C136.172 101.133 135.625 101.445 135.188 101.867C134.766 102.273 134.453 102.789 134.25 103.414C134.062 104.039 133.977 104.766 133.992 105.594L132.562 104.656C132.562 102.953 132.727 101.406 133.055 100.016C133.398 98.6094 133.883 97.3984 134.508 96.3828C135.133 95.3516 135.891 94.5625 136.781 94.0156C137.672 93.4531 138.672 93.1719 139.781 93.1719C140.172 93.1719 140.555 93.1953 140.93 93.2422C141.32 93.2891 141.664 93.3594 141.961 93.4531ZM142.852 106.578V106.086C142.852 104.227 143.117 102.516 143.648 100.953C144.18 99.375 144.961 98.0078 145.992 96.8516C147.023 95.6953 148.297 94.7969 149.812 94.1562C151.328 93.5 153.078 93.1719 155.062 93.1719C157.062 93.1719 158.82 93.5 160.336 94.1562C161.867 94.7969 163.148 95.6953 164.18 96.8516C165.211 98.0078 165.992 99.375 166.523 100.953C167.055 102.516 167.32 104.227 167.32 106.086V106.578C167.32 108.422 167.055 110.133 166.523 111.711C165.992 113.273 165.211 114.641 164.18 115.812C163.148 116.969 161.875 117.867 160.359 118.508C158.844 119.148 157.094 119.469 155.109 119.469C153.125 119.469 151.367 119.148 149.836 118.508C148.305 117.867 147.023 116.969 145.992 115.812C144.961 114.641 144.18 113.273 143.648 111.711C143.117 110.133 142.852 108.422 142.852 106.578ZM150.75 106.086V106.578C150.75 107.531 150.82 108.422 150.961 109.25C151.102 110.078 151.336 110.805 151.664 111.43C151.992 112.039 152.438 112.516 153 112.859C153.562 113.203 154.266 113.375 155.109 113.375C155.938 113.375 156.625 113.203 157.172 112.859C157.734 112.516 158.18 112.039 158.508 111.43C158.836 110.805 159.07 110.078 159.211 109.25C159.352 108.422 159.422 107.531 159.422 106.578V106.086C159.422 105.164 159.352 104.297 159.211 103.484C159.07 102.656 158.836 101.93 158.508 101.305C158.18 100.664 157.734 100.164 157.172 99.8047C156.609 99.4453 155.906 99.2656 155.062 99.2656C154.234 99.2656 153.539 99.4453 152.977 99.8047C152.43 100.164 151.992 100.664 151.664 101.305C151.336 101.93 151.102 102.656 150.961 103.484C150.82 104.297 150.75 105.164 150.75 106.086ZM171.422 93.6406H179.344V119.82C179.344 121.852 178.953 123.562 178.172 124.953C177.391 126.359 176.273 127.422 174.82 128.141C173.367 128.875 171.633 129.242 169.617 129.242C168.945 129.242 168.328 129.211 167.766 129.148C167.188 129.102 166.555 129 165.867 128.844V122.867C166.273 122.93 166.648 122.977 166.992 123.008C167.336 123.055 167.711 123.078 168.117 123.078C168.836 123.078 169.438 122.961 169.922 122.727C170.406 122.492 170.773 122.133 171.023 121.648C171.289 121.164 171.422 120.555 171.422 119.82V93.6406ZM170.836 87.1016C170.836 85.9766 171.242 85.0547 172.055 84.3359C172.867 83.6172 173.922 83.2578 175.219 83.2578C176.516 83.2578 177.57 83.6172 178.383 84.3359C179.195 85.0547 179.602 85.9766 179.602 87.1016C179.602 88.2266 179.195 89.1484 178.383 89.8672C177.57 90.5859 176.516 90.9453 175.219 90.9453C173.922 90.9453 172.867 90.5859 172.055 89.8672C171.242 89.1484 170.836 88.2266 170.836 87.1016ZM196.102 119.469C194.039 119.469 192.195 119.148 190.57 118.508C188.945 117.852 187.57 116.953 186.445 115.812C185.336 114.672 184.484 113.359 183.891 111.875C183.312 110.391 183.023 108.82 183.023 107.164V106.273C183.023 104.414 183.281 102.695 183.797 101.117C184.312 99.5234 185.078 98.1328 186.094 96.9453C187.109 95.7578 188.383 94.8359 189.914 94.1797C191.445 93.5078 193.227 93.1719 195.258 93.1719C197.055 93.1719 198.664 93.4609 200.086 94.0391C201.508 94.6172 202.711 95.4453 203.695 96.5234C204.695 97.6016 205.453 98.9062 205.969 100.438C206.5 101.969 206.766 103.688 206.766 105.594V108.805H186.047V103.859H199.055V103.25C199.07 102.406 198.922 101.688 198.609 101.094C198.312 100.5 197.875 100.047 197.297 99.7344C196.719 99.4219 196.016 99.2656 195.188 99.2656C194.328 99.2656 193.617 99.4531 193.055 99.8281C192.508 100.203 192.078 100.719 191.766 101.375C191.469 102.016 191.258 102.758 191.133 103.602C191.008 104.445 190.945 105.336 190.945 106.273V107.164C190.945 108.102 191.07 108.953 191.32 109.719C191.586 110.484 191.961 111.141 192.445 111.688C192.945 112.219 193.539 112.633 194.227 112.93C194.93 113.227 195.727 113.375 196.617 113.375C197.695 113.375 198.758 113.172 199.805 112.766C200.852 112.359 201.75 111.688 202.5 110.75L206.086 115.016C205.57 115.75 204.836 116.461 203.883 117.148C202.945 117.836 201.82 118.398 200.508 118.836C199.195 119.258 197.727 119.469 196.102 119.469ZM220.688 113.375C221.422 113.375 222.047 113.242 222.562 112.977C223.094 112.695 223.492 112.305 223.758 111.805C224.039 111.289 224.172 110.672 224.156 109.953H231.586C231.602 111.859 231.133 113.531 230.18 114.969C229.242 116.391 227.961 117.5 226.336 118.297C224.727 119.078 222.906 119.469 220.875 119.469C218.891 119.469 217.156 119.148 215.672 118.508C214.188 117.852 212.945 116.945 211.945 115.789C210.961 114.617 210.219 113.25 209.719 111.688C209.234 110.125 208.992 108.43 208.992 106.602V106.062C208.992 104.234 209.234 102.539 209.719 100.977C210.219 99.3984 210.961 98.0312 211.945 96.875C212.945 95.7031 214.18 94.7969 215.648 94.1562C217.133 93.5 218.859 93.1719 220.828 93.1719C222.938 93.1719 224.797 93.5703 226.406 94.3672C228.031 95.1641 229.305 96.3203 230.227 97.8359C231.148 99.3516 231.602 101.188 231.586 103.344H224.156C224.172 102.578 224.055 101.891 223.805 101.281C223.555 100.672 223.164 100.188 222.633 99.8281C222.117 99.4531 221.453 99.2656 220.641 99.2656C219.828 99.2656 219.172 99.4453 218.672 99.8047C218.172 100.164 217.789 100.664 217.523 101.305C217.273 101.93 217.102 102.648 217.008 103.461C216.93 104.273 216.891 105.141 216.891 106.062V106.602C216.891 107.539 216.93 108.422 217.008 109.25C217.102 110.062 217.281 110.781 217.547 111.406C217.812 112.016 218.195 112.5 218.695 112.859C219.195 113.203 219.859 113.375 220.688 113.375ZM248.32 93.6406V99.125H233.039V93.6406H248.32ZM236.25 87.3359H244.148V110.727C244.148 111.398 244.227 111.922 244.383 112.297C244.539 112.656 244.805 112.914 245.18 113.07C245.57 113.211 246.086 113.281 246.727 113.281C247.18 113.281 247.555 113.273 247.852 113.258C248.148 113.227 248.43 113.188 248.695 113.141V118.789C248.023 119.008 247.32 119.172 246.586 119.281C245.852 119.406 245.07 119.469 244.242 119.469C242.555 119.469 241.109 119.203 239.906 118.672C238.719 118.141 237.812 117.305 237.188 116.164C236.562 115.023 236.25 113.539 236.25 111.711V87.3359ZM277.406 107.422H268.922V101.07H277.406C278.562 101.07 279.5 100.875 280.219 100.484C280.938 100.094 281.461 99.5547 281.789 98.8672C282.133 98.1641 282.305 97.375 282.305 96.5C282.305 95.5625 282.133 94.6953 281.789 93.8984C281.461 93.1016 280.938 92.4609 280.219 91.9766C279.5 91.4766 278.562 91.2266 277.406 91.2266H272.016V119H263.789V84.875H277.406C280.141 84.875 282.492 85.375 284.461 86.375C286.445 87.375 287.969 88.75 289.031 90.5C290.094 92.2344 290.625 94.2188 290.625 96.4531C290.625 98.6562 290.094 100.578 289.031 102.219C287.969 103.859 286.445 105.141 284.461 106.062C282.492 106.969 280.141 107.422 277.406 107.422ZM302.414 83V119H294.516V83H302.414ZM301.477 105.453L299.625 105.5C299.625 103.719 299.844 102.078 300.281 100.578C300.719 99.0781 301.344 97.7734 302.156 96.6641C302.969 95.5547 303.945 94.6953 305.086 94.0859C306.227 93.4766 307.492 93.1719 308.883 93.1719C310.133 93.1719 311.273 93.3516 312.305 93.7109C313.352 94.0703 314.25 94.6484 315 95.4453C315.766 96.2422 316.352 97.2812 316.758 98.5625C317.18 99.8438 317.391 101.406 317.391 103.25V119H309.445V103.203C309.445 102.172 309.297 101.375 309 100.812C308.719 100.234 308.312 99.8359 307.781 99.6172C307.25 99.3828 306.602 99.2656 305.836 99.2656C304.914 99.2656 304.164 99.4219 303.586 99.7344C303.008 100.047 302.562 100.484 302.25 101.047C301.953 101.594 301.75 102.242 301.641 102.992C301.531 103.742 301.477 104.562 301.477 105.453ZM330.117 93.6406V119H322.195V93.6406H330.117ZM321.727 87.1016C321.727 85.9766 322.133 85.0547 322.945 84.3359C323.758 83.6172 324.812 83.2578 326.109 83.2578C327.406 83.2578 328.461 83.6172 329.273 84.3359C330.086 85.0547 330.492 85.9766 330.492 87.1016C330.492 88.2266 330.086 89.1484 329.273 89.8672C328.461 90.5859 327.406 90.9453 326.109 90.9453C324.812 90.9453 323.758 90.5859 322.945 89.8672C322.133 89.1484 321.727 88.2266 321.727 87.1016ZM343.336 83V119H335.414V83H343.336ZM347.227 106.578V106.086C347.227 104.227 347.492 102.516 348.023 100.953C348.555 99.375 349.336 98.0078 350.367 96.8516C351.398 95.6953 352.672 94.7969 354.188 94.1562C355.703 93.5 357.453 93.1719 359.438 93.1719C361.438 93.1719 363.195 93.5 364.711 94.1562C366.242 94.7969 367.523 95.6953 368.555 96.8516C369.586 98.0078 370.367 99.375 370.898 100.953C371.43 102.516 371.695 104.227 371.695 106.086V106.578C371.695 108.422 371.43 110.133 370.898 111.711C370.367 113.273 369.586 114.641 368.555 115.812C367.523 116.969 366.25 117.867 364.734 118.508C363.219 119.148 361.469 119.469 359.484 119.469C357.5 119.469 355.742 119.148 354.211 118.508C352.68 117.867 351.398 116.969 350.367 115.812C349.336 114.641 348.555 113.273 348.023 111.711C347.492 110.133 347.227 108.422 347.227 106.578ZM355.125 106.086V106.578C355.125 107.531 355.195 108.422 355.336 109.25C355.477 110.078 355.711 110.805 356.039 111.43C356.367 112.039 356.812 112.516 357.375 112.859C357.938 113.203 358.641 113.375 359.484 113.375C360.312 113.375 361 113.203 361.547 112.859C362.109 112.516 362.555 112.039 362.883 111.43C363.211 110.805 363.445 110.078 363.586 109.25C363.727 108.422 363.797 107.531 363.797 106.578V106.086C363.797 105.164 363.727 104.297 363.586 103.484C363.445 102.656 363.211 101.93 362.883 101.305C362.555 100.664 362.109 100.164 361.547 99.8047C360.984 99.4453 360.281 99.2656 359.438 99.2656C358.609 99.2656 357.914 99.4453 357.352 99.8047C356.805 100.164 356.367 100.664 356.039 101.305C355.711 101.93 355.477 102.656 355.336 103.484C355.195 104.297 355.125 105.164 355.125 106.086ZM388.5 111.875C388.5 111.438 388.352 111.062 388.055 110.75C387.773 110.422 387.273 110.125 386.555 109.859C385.836 109.578 384.828 109.297 383.531 109.016C382.297 108.75 381.133 108.398 380.039 107.961C378.961 107.523 378.016 106.992 377.203 106.367C376.391 105.742 375.75 105 375.281 104.141C374.828 103.281 374.602 102.297 374.602 101.188C374.602 100.109 374.828 99.0938 375.281 98.1406C375.75 97.1719 376.43 96.3203 377.32 95.5859C378.227 94.8359 379.328 94.25 380.625 93.8281C381.922 93.3906 383.398 93.1719 385.055 93.1719C387.336 93.1719 389.305 93.5234 390.961 94.2266C392.617 94.9141 393.891 95.8828 394.781 97.1328C395.688 98.3672 396.141 99.7969 396.141 101.422H388.242C388.242 100.781 388.133 100.234 387.914 99.7812C387.711 99.3281 387.375 98.9844 386.906 98.75C386.438 98.5 385.812 98.375 385.031 98.375C384.484 98.375 383.984 98.4766 383.531 98.6797C383.094 98.8828 382.742 99.1641 382.477 99.5234C382.211 99.8828 382.078 100.305 382.078 100.789C382.078 101.133 382.156 101.445 382.312 101.727C382.484 101.992 382.742 102.242 383.086 102.477C383.43 102.695 383.867 102.898 384.398 103.086C384.93 103.258 385.57 103.414 386.32 103.555C388.023 103.867 389.617 104.312 391.102 104.891C392.586 105.469 393.789 106.289 394.711 107.352C395.648 108.414 396.117 109.844 396.117 111.641C396.117 112.766 395.859 113.805 395.344 114.758C394.828 115.695 394.086 116.523 393.117 117.242C392.148 117.945 390.984 118.492 389.625 118.883C388.266 119.273 386.734 119.469 385.031 119.469C382.609 119.469 380.562 119.039 378.891 118.18C377.219 117.305 375.953 116.211 375.094 114.898C374.25 113.57 373.828 112.227 373.828 110.867H381.188C381.219 111.648 381.406 112.289 381.75 112.789C382.109 113.289 382.586 113.656 383.18 113.891C383.773 114.125 384.461 114.242 385.242 114.242C385.961 114.242 386.555 114.141 387.023 113.938C387.508 113.734 387.875 113.461 388.125 113.117C388.375 112.758 388.5 112.344 388.5 111.875ZM398.836 106.578V106.086C398.836 104.227 399.102 102.516 399.633 100.953C400.164 99.375 400.945 98.0078 401.977 96.8516C403.008 95.6953 404.281 94.7969 405.797 94.1562C407.312 93.5 409.062 93.1719 411.047 93.1719C413.047 93.1719 414.805 93.5 416.32 94.1562C417.852 94.7969 419.133 95.6953 420.164 96.8516C421.195 98.0078 421.977 99.375 422.508 100.953C423.039 102.516 423.305 104.227 423.305 106.086V106.578C423.305 108.422 423.039 110.133 422.508 111.711C421.977 113.273 421.195 114.641 420.164 115.812C419.133 116.969 417.859 117.867 416.344 118.508C414.828 119.148 413.078 119.469 411.094 119.469C409.109 119.469 407.352 119.148 405.82 118.508C404.289 117.867 403.008 116.969 401.977 115.812C400.945 114.641 400.164 113.273 399.633 111.711C399.102 110.133 398.836 108.422 398.836 106.578ZM406.734 106.086V106.578C406.734 107.531 406.805 108.422 406.945 109.25C407.086 110.078 407.32 110.805 407.648 111.43C407.977 112.039 408.422 112.516 408.984 112.859C409.547 113.203 410.25 113.375 411.094 113.375C411.922 113.375 412.609 113.203 413.156 112.859C413.719 112.516 414.164 112.039 414.492 111.43C414.82 110.805 415.055 110.078 415.195 109.25C415.336 108.422 415.406 107.531 415.406 106.578V106.086C415.406 105.164 415.336 104.297 415.195 103.484C415.055 102.656 414.82 101.93 414.492 101.305C414.164 100.664 413.719 100.164 413.156 99.8047C412.594 99.4453 411.891 99.2656 411.047 99.2656C410.219 99.2656 409.523 99.4453 408.961 99.8047C408.414 100.164 407.977 100.664 407.648 101.305C407.32 101.93 407.086 102.656 406.945 103.484C406.805 104.297 406.734 105.164 406.734 106.086ZM434.789 98.5156V128.75H426.891V93.6406H434.25L434.789 98.5156ZM450.352 106.016V106.508C450.352 108.352 450.141 110.062 449.719 111.641C449.297 113.219 448.672 114.594 447.844 115.766C447.016 116.938 445.984 117.852 444.75 118.508C443.531 119.148 442.117 119.469 440.508 119.469C438.992 119.469 437.688 119.133 436.594 118.461C435.5 117.789 434.586 116.859 433.852 115.672C433.117 114.484 432.523 113.125 432.07 111.594C431.617 110.062 431.258 108.445 430.992 106.742V106.109C431.258 104.281 431.617 102.586 432.07 101.023C432.523 99.4453 433.117 98.0703 433.852 96.8984C434.586 95.7266 435.492 94.8125 436.57 94.1562C437.664 93.5 438.969 93.1719 440.484 93.1719C442.094 93.1719 443.508 93.4766 444.727 94.0859C445.961 94.6953 446.992 95.5703 447.82 96.7109C448.664 97.8359 449.297 99.1875 449.719 100.766C450.141 102.344 450.352 104.094 450.352 106.016ZM442.453 106.508V106.016C442.453 105.031 442.383 104.133 442.242 103.32C442.102 102.492 441.875 101.773 441.562 101.164C441.266 100.555 440.867 100.086 440.367 99.7578C439.867 99.4297 439.25 99.2656 438.516 99.2656C437.672 99.2656 436.961 99.3984 436.383 99.6641C435.82 99.9141 435.367 100.305 435.023 100.836C434.695 101.352 434.461 102 434.32 102.781C434.195 103.547 434.141 104.445 434.156 105.477V107.398C434.125 108.586 434.242 109.633 434.508 110.539C434.773 111.43 435.234 112.125 435.891 112.625C436.547 113.125 437.438 113.375 438.562 113.375C439.312 113.375 439.938 113.203 440.438 112.859C440.938 112.5 441.336 112.008 441.633 111.383C441.93 110.742 442.141 110.008 442.266 109.18C442.391 108.352 442.453 107.461 442.453 106.508ZM461.602 83V119H453.703V83H461.602ZM460.664 105.453L458.812 105.5C458.812 103.719 459.031 102.078 459.469 100.578C459.906 99.0781 460.531 97.7734 461.344 96.6641C462.156 95.5547 463.133 94.6953 464.273 94.0859C465.414 93.4766 466.68 93.1719 468.07 93.1719C469.32 93.1719 470.461 93.3516 471.492 93.7109C472.539 94.0703 473.438 94.6484 474.188 95.4453C474.953 96.2422 475.539 97.2812 475.945 98.5625C476.367 99.8438 476.578 101.406 476.578 103.25V119H468.633V103.203C468.633 102.172 468.484 101.375 468.188 100.812C467.906 100.234 467.5 99.8359 466.969 99.6172C466.438 99.3828 465.789 99.2656 465.023 99.2656C464.102 99.2656 463.352 99.4219 462.773 99.7344C462.195 100.047 461.75 100.484 461.438 101.047C461.141 101.594 460.938 102.242 460.828 102.992C460.719 103.742 460.664 104.562 460.664 105.453ZM488.742 116.023L495.305 93.6406H503.789L493.594 122.773C493.375 123.414 493.086 124.102 492.727 124.836C492.367 125.586 491.875 126.297 491.25 126.969C490.625 127.641 489.82 128.188 488.836 128.609C487.867 129.031 486.664 129.242 485.227 129.242C484.461 129.242 483.898 129.203 483.539 129.125C483.195 129.062 482.664 128.945 481.945 128.773V123.125C482.148 123.125 482.32 123.125 482.461 123.125C482.617 123.125 482.789 123.125 482.977 123.125C483.82 123.125 484.492 123.039 484.992 122.867C485.508 122.695 485.898 122.445 486.164 122.117C486.445 121.789 486.664 121.391 486.82 120.922L488.742 116.023ZM487.078 93.6406L492.07 111.383L492.938 119.75H487.641L478.617 93.6406H487.078Z" fill="black"/>
<path d="M1134 0H1348C1356.28 0 1363 6.71573 1363 15V148C1363 156.284 1356.28 163 1348 163H1134V0Z" fill="#0A3161"/>
<path d="M1234.26 103.786H1262.74V109.357H1234.26V103.786ZM1239.96 114.929H1257.04V120.5H1239.96V114.929ZM1248.5 42.5C1240.95 42.5 1233.71 45.4349 1228.37 50.6592C1223.03 55.8834 1220.03 62.969 1220.03 70.3571C1219.84 74.4057 1220.63 78.4412 1222.34 82.1315C1224.05 85.8219 1226.64 89.0616 1229.88 91.5843C1232.73 94.175 1234.26 95.6514 1234.26 98.2143H1239.96C1239.96 93.0886 1236.8 90.2193 1233.72 87.4614C1231.06 85.4676 1228.94 82.8658 1227.55 79.8838C1226.15 76.9019 1225.53 73.6308 1225.72 70.3571C1225.72 64.4466 1228.12 58.7781 1232.39 54.5988C1236.67 50.4194 1242.46 48.0714 1248.5 48.0714C1254.54 48.0714 1260.33 50.4194 1264.61 54.5988C1268.88 58.7781 1271.28 64.4466 1271.28 70.3571C1271.47 73.6333 1270.84 76.9059 1269.44 79.888C1268.04 82.8701 1265.92 85.4706 1263.25 87.4614C1260.2 90.2471 1257.04 93.0329 1257.04 98.2143H1262.74C1262.74 95.6514 1264.25 94.175 1267.12 91.5564C1270.36 89.0381 1272.94 85.8031 1274.66 82.1176C1276.37 78.4321 1277.16 74.4014 1276.97 70.3571C1276.97 66.6989 1276.24 63.0765 1274.81 59.6967C1273.37 56.3169 1271.28 53.2459 1268.63 50.6592C1265.99 48.0724 1262.85 46.0205 1259.4 44.6205C1255.94 43.2205 1252.24 42.5 1248.5 42.5Z" fill="white"/>
</svg>
